<?xml version="1.0" encoding="utf-8"?>
<!-- Generator: Adobe Illustrator 16.0.3, SVG Export Plug-In . SVG Version: 6.00 Build 0)  -->
<!DOCTYPE svg PUBLIC "-//W3C//DTD SVG 1.1//EN" "http://www.w3.org/Graphics/SVG/1.1/DTD/svg11.dtd">
<svg version="1.1" xmlns="http://www.w3.org/2000/svg" xmlns:xlink="http://www.w3.org/1999/xlink" x="0px" y="0px" width="623.6px"
	 height="255.1px" viewBox="0 0 623.6 255.1" style="enable-background:new 0 0 623.6 255.1;" xml:space="preserve">
<style type="text/css">
<![CDATA[
	.st0{fill:#EE4032;}
	.st1{fill:#FFFFFF;}
	.st2{fill:#323232;}
]]>
</style>
<g id="BG">
	<rect class="st1" width="623.6" height="255.1"/>
</g>
<g id="Logo">
	<g>
		<g>
			<path class="st2" d="M199.3,216.3v1.5c0,0.9-0.6,1.4-1.4,1.4c-0.9,0-1.4-0.6-1.4-1.4v-2c0-1.1-0.6-1.7-1.6-1.7
				c-1,0-1.6,0.6-1.6,1.7v11.9c0,1.1,0.6,1.7,1.6,1.7c1,0,1.6-0.6,1.6-1.7v-2c0-0.9,0.5-1.4,1.4-1.4c0.8,0,1.4,0.6,1.4,1.4v1.5
				c0,2.9-1.5,4.7-4.4,4.7c-2.9,0-4.5-1.8-4.5-4.7v-10.9c0-2.9,1.6-4.7,4.5-4.7C197.7,211.5,199.3,213.4,199.3,216.3z"/>
			<path class="st2" d="M209.2,216.2c0-2.8,1.8-4.7,4.6-4.7c2.9,0,4.6,1.8,4.6,4.7v11c0,2.8-1.8,4.7-4.6,4.7c-2.9,0-4.6-1.8-4.6-4.7
				V216.2z M215.5,215.8c0-1-0.6-1.7-1.7-1.7c-1,0-1.7,0.7-1.7,1.7v11.9c0,1,0.6,1.7,1.7,1.7c1,0,1.7-0.7,1.7-1.7V215.8z"/>
			<path class="st2" d="M230.5,211.9h2.6c3.5,0,5.1,2,5.1,5.2v9.2c0,3.1-1.6,5.2-5.1,5.2h-2.6c-0.9,0-1.5-0.6-1.5-1.5v-16.6
				C229,212.5,229.6,211.9,230.5,211.9z M233.1,228.9c1.4,0,2.1-0.8,2.1-2.1v-10.1c0-1.3-0.7-2.1-2.1-2.1H232v14.4H233.1z"/>
			<path class="st2" d="M248.7,213.1c0-0.9,0.6-1.5,1.5-1.5c0.9,0,1.5,0.6,1.5,1.5v17.2c0,0.9-0.6,1.5-1.5,1.5
				c-0.9,0-1.5-0.6-1.5-1.5V213.1z"/>
			<path class="st2" d="M271.1,216.3v1.5c0,0.9-0.6,1.4-1.4,1.4c-0.9,0-1.4-0.6-1.4-1.4v-2c0-1.1-0.6-1.7-1.6-1.7
				c-1,0-1.6,0.6-1.6,1.7v11.9c0,1.1,0.6,1.7,1.6,1.7c1,0,1.6-0.6,1.6-1.7v-2c0-0.9,0.5-1.4,1.4-1.4c0.8,0,1.4,0.6,1.4,1.4v1.5
				c0,2.9-1.5,4.7-4.4,4.7c-2.9,0-4.5-1.8-4.5-4.7v-10.9c0-2.9,1.6-4.7,4.5-4.7C269.6,211.5,271.1,213.4,271.1,216.3z"/>
			<path class="st2" d="M281.4,213.4c0-0.9,0.6-1.5,1.5-1.5h5.6c0.8,0,1.3,0.6,1.3,1.3c0,0.8-0.5,1.3-1.3,1.3h-4.1v5.7h3.2
				c0.8,0,1.3,0.6,1.3,1.3c0,0.8-0.6,1.3-1.3,1.3h-3.2v6h4.1c0.8,0,1.3,0.6,1.3,1.3s-0.5,1.3-1.3,1.3h-5.6c-0.9,0-1.5-0.6-1.5-1.5
				V213.4z"/>
			<path class="st2" d="M302.7,223.8v6.5c0,0.9-0.6,1.5-1.5,1.5c-0.9,0-1.5-0.6-1.5-1.5v-16.9c0-0.9,0.6-1.5,1.5-1.5h2.6
				c3.1,0,4.8,1.5,4.8,4.8v2.2c0,2.9-2,4.8-4.9,4.8H302.7z M305.7,216.7c0-1.3-0.7-2.1-1.9-2.1h-1.1v6.6h1c1.3,0,2-0.8,2-2.1V216.7z
				"/>
			<path class="st2" d="M318.6,213.1c0-0.9,0.6-1.5,1.5-1.5c0.9,0,1.5,0.6,1.5,1.5v15.8h3.6c0.8,0,1.3,0.6,1.3,1.3s-0.6,1.3-1.3,1.3
				h-5.1c-0.9,0-1.5-0.6-1.5-1.5V213.1z"/>
			<path class="st2" d="M345.4,230c0.2,1.1-0.6,1.8-1.4,1.8c-0.7,0-1.3-0.4-1.5-1.4l-0.5-3.4h-2.9l-0.4,3.4c-0.1,1-0.8,1.4-1.5,1.4
				c-0.8,0-1.6-0.6-1.4-1.8l3.2-17c0.2-1,0.7-1.4,1.6-1.4s1.4,0.4,1.6,1.4L345.4,230z M339.5,224.4h2.2l-1-7.5c0-0.3-0.1-0.6-0.1-1
				c0,0.4-0.1,0.7-0.1,1L339.5,224.4z"/>
			<path class="st2" d="M355,226.6c0-1,0.5-1.4,1.4-1.4c0.9,0,1.4,0.6,1.4,1.4v0.7c0,1.2,0.4,2.2,1.7,2.2c1.1,0,1.6-0.8,1.6-2.2
				c0-2.1-1.1-3.2-2.5-4.4c-2-1.8-3.8-3.7-3.8-6.5c0-3.2,1.7-4.8,4.4-4.8c2.6,0,4.3,1.7,4.3,4.4v1c0,0.8-0.6,1.4-1.4,1.4
				c-0.8,0-1.4-0.5-1.4-1.4V216c0-1.2-0.5-1.9-1.5-1.9c-1.1,0-1.5,0.8-1.5,2c0,1.8,1,2.9,2.3,4.1c1.6,1.5,3.9,3.6,3.9,6.7
				c0,2.9-1.8,5-4.6,5c-2.8,0-4.4-2-4.4-4.6V226.6z"/>
			<path class="st2" d="M378.8,214.6v15.8c0,0.9-0.6,1.5-1.5,1.5c-0.9,0-1.5-0.6-1.5-1.5v-15.8h-2.1c-0.8,0-1.3-0.5-1.3-1.3
				c0-0.8,0.6-1.3,1.3-1.3h7.2c0.8,0,1.3,0.6,1.3,1.3c0,0.8-0.5,1.3-1.3,1.3H378.8z"/>
			<path class="st2" d="M391.7,213.1c0-0.9,0.6-1.5,1.5-1.5c0.9,0,1.5,0.6,1.5,1.5v17.2c0,0.9-0.6,1.5-1.5,1.5
				c-0.9,0-1.5-0.6-1.5-1.5V213.1z"/>
			<path class="st2" d="M414.1,216.3v1.5c0,0.9-0.6,1.4-1.4,1.4c-0.9,0-1.4-0.6-1.4-1.4v-2c0-1.1-0.6-1.7-1.6-1.7
				c-1,0-1.6,0.6-1.6,1.7v11.9c0,1.1,0.6,1.7,1.6,1.7c1,0,1.6-0.6,1.6-1.7v-2c0-0.9,0.5-1.4,1.4-1.4c0.8,0,1.4,0.6,1.4,1.4v1.5
				c0,2.9-1.5,4.7-4.4,4.7c-2.9,0-4.5-1.8-4.5-4.7v-10.9c0-2.9,1.6-4.7,4.5-4.7C412.6,211.5,414.1,213.4,414.1,216.3z"/>
			<path class="st2" d="M424,216.2c0-2.8,1.8-4.7,4.6-4.7s4.6,1.8,4.6,4.7v11c0,2.8-1.8,4.7-4.6,4.7s-4.6-1.8-4.6-4.7V216.2z
				 M430.3,215.8c0-1-0.6-1.7-1.7-1.7s-1.7,0.7-1.7,1.7v11.9c0,1,0.6,1.7,1.7,1.7s1.7-0.7,1.7-1.7V215.8z"/>
		</g>
		<path class="st0" d="M268.7,123.1c0,0-0.1,0.1-0.1,0.1C268.7,123.1,268.7,123.1,268.7,123.1L268.7,123.1z M291.4,101.5
			c0.3-0.2,0.6-0.5,0.9-0.7C292,101,291.7,101.2,291.4,101.5L291.4,101.5z M285.2,107.4c-0.1,0.1-0.2,0.2-0.3,0.3l0,0
			C284.9,107.6,285.1,107.5,285.2,107.4L285.2,107.4z M262.9,128.3 M284.5,149.6c-0.3-1.7-1.9-2.9-3.6-2.6c-0.3,0-0.5,0.1-0.8,0.2
			c0.7,0.7,1.3,1.4,1.9,2c1,1.1,1.7,1.6,2.3,1.8C284.6,150.6,284.6,150.1,284.5,149.6z M288.4,141.5c-1.7,0.3-2.9,1.9-2.6,3.6
			c0.3,1.7,1.9,2.9,3.6,2.6c1.7-0.3,2.9-1.9,2.6-3.6S290.1,141.3,288.4,141.5z M297.8,114.3c0.2,1.6,1.7,2.7,3.4,2.5
			c1.6-0.2,2.7-1.7,2.5-3.4c0-0.2-0.1-0.4-0.1-0.6c-0.4-1.1-1.5-1.9-2.7-1.9c-0.2,0-0.3,0-0.5,0
			C298.7,111.2,297.6,112.7,297.8,114.3z M300.1,123.2c1.6-0.2,2.8-1.8,2.5-3.4c-0.2-1.6-1.8-2.8-3.4-2.5c-1.6,0.2-2.8,1.8-2.5,3.4
			C297,122.4,298.5,123.5,300.1,123.2z M299.1,129.7c1.7-0.3,2.8-1.8,2.5-3.4c-0.2-1.7-1.8-2.8-3.4-2.5s-2.8,1.8-2.5,3.4
			C295.9,128.8,297.4,129.9,299.1,129.7z M298,136.2c1.7-0.3,2.8-1.8,2.6-3.5s-1.8-2.8-3.5-2.6c-1.7,0.3-2.8,1.8-2.6,3.5
			C294.8,135.3,296.3,136.4,298,136.2z M299.5,139.1c-0.3-1.7-1.8-2.9-3.5-2.6c-1.7,0.3-2.9,1.8-2.6,3.5c0.3,1.7,1.8,2.9,3.5,2.6
			C298.6,142.4,299.8,140.8,299.5,139.1z M294.9,142.9c-1.7,0.3-2.9,1.9-2.6,3.6s1.9,2.9,3.6,2.6c1.7-0.3,2.9-1.9,2.6-3.6
			C298.3,143.8,296.7,142.6,294.9,142.9z M304.8,115.2c0.2,1.4,1.5,2.3,2.8,2.1c1-0.2,1.8-0.9,2-1.9c-1.6-0.4-3.1-1-4.6-1.7
			C304.8,114.1,304.7,114.7,304.8,115.2z M306.5,123.8c1.4-0.2,2.3-1.5,2.1-2.8c-0.2-1.4-1.5-2.3-2.8-2.1c-1.4,0.2-2.3,1.5-2.1,2.8
			C303.9,123,305.2,124,306.5,123.8z M302.6,128.1c0.2,1.4,1.5,2.3,2.9,2.1c1.4-0.2,2.3-1.5,2.1-2.9c-0.2-1.4-1.5-2.3-2.9-2.1
			C303.3,125.4,302.4,126.7,302.6,128.1z M303.6,131.6c-1.4,0.2-2.3,1.5-2.1,2.9c0.2,1.4,1.5,2.3,2.9,2.1c1.4-0.2,2.3-1.5,2.1-2.9
			C306.3,132.4,305,131.4,303.6,131.6z M302.6,138c-1.4,0.2-2.4,1.5-2.2,2.9c0.2,1.4,1.5,2.4,2.9,2.2c1.4-0.2,2.4-1.5,2.2-2.9
			C305.3,138.8,304,137.8,302.6,138z M301.5,144.4c-1.4,0.2-2.4,1.5-2.2,2.9c0.2,1.4,1.5,2.4,2.9,2.2c1.4-0.2,2.4-1.5,2.2-2.9
			C304.2,145.2,302.9,144.2,301.5,144.4z M313.7,117.9c0.9-0.1,1.6-0.9,1.8-1.8c-1.4,0-2.8-0.1-4.1-0.4c0,0.1,0,0.3,0,0.4
			C311.5,117.3,312.6,118.1,313.7,117.9z M312.6,124.4c1.2-0.2,2-1.3,1.8-2.5c-0.2-1.2-1.3-2-2.5-1.8c-1.2,0.2-2,1.3-1.8,2.5
			C310.4,123.8,311.5,124.6,312.6,124.4z M311.6,130.9c1.2-0.2,2.1-1.3,1.9-2.5c-0.2-1.2-1.3-2.1-2.5-1.9c-1.2,0.2-2.1,1.3-1.9,2.5
			C309.2,130.2,310.4,131.1,311.6,130.9z M312.5,134.8c-0.2-1.3-1.4-2.1-2.6-1.9s-2.1,1.4-1.9,2.6c0.2,1.3,1.4,2.1,2.6,1.9
			C311.8,137.2,312.7,136,312.5,134.8z M308.8,139.2c-1.3,0.2-2.2,1.4-2,2.7c0.2,1.3,1.4,2.2,2.7,2c1.3-0.2,2.2-1.4,2-2.7
			C311.3,139.9,310.1,139,308.8,139.2z M307.7,145.5c-1.3,0.2-2.3,1.5-2.1,2.8c0.2,1.3,1.5,2.3,2.8,2.1c1.3-0.2,2.3-1.5,2.1-2.8
			C310.3,146.2,309.1,145.3,307.7,145.5z M318.5,117.1c0.1,0.7,0.8,1.2,1.5,1.1c0.7-0.1,1.2-0.8,1.1-1.5c-0.1-0.5-0.4-0.9-0.9-1.1
			c-0.2-0.1-0.4-0.1-0.6-0.1c-0.2,0-0.5,0.1-0.7,0.3C318.6,116.2,318.4,116.6,318.5,117.1z M319,124.8c0.9-0.1,1.4-0.9,1.3-1.8
			c-0.1-0.9-0.9-1.4-1.8-1.3s-1.4,0.9-1.3,1.8C317.4,124.4,318.2,125,319,124.8z M318,131.5c1-0.1,1.6-1.1,1.5-2
			c-0.1-1-1.1-1.6-2-1.5c-1,0.1-1.6,1.1-1.5,2C316.1,131,317,131.6,318,131.5z M316.4,134.1c-1.1,0.2-1.9,1.2-1.7,2.3
			c0.2,1.1,1.2,1.9,2.3,1.7c1.1-0.2,1.9-1.2,1.7-2.3C318.5,134.7,317.5,134,316.4,134.1z M315.3,140.3c-1.2,0.2-2.1,1.3-1.9,2.5
			c0.2,1.2,1.3,2.1,2.5,1.9s2.1-1.3,1.9-2.5C317.6,141,316.5,140.1,315.3,140.3z M314.2,146.5c-1.3,0.2-2.3,1.5-2.1,2.8
			s1.5,2.3,2.8,2.1s2.3-1.5,2.1-2.8S315.5,146.3,314.2,146.5z M326.4,118.9c0.4-0.1,0.7-0.4,0.6-0.8s-0.4-0.7-0.8-0.6
			c-0.4,0.1-0.7,0.4-0.6,0.8S326,119,326.4,118.9z M325.3,125.6c0.5-0.1,0.9-0.6,0.8-1.1c-0.1-0.5-0.6-0.9-1.1-0.8
			c-0.5,0.1-0.9,0.6-0.8,1.1C324.3,125.3,324.8,125.6,325.3,125.6z M323.9,129.7c-0.7,0.1-1.2,0.8-1.1,1.4c0.1,0.7,0.8,1.2,1.4,1.1
			c0.7-0.1,1.2-0.8,1.1-1.4S324.6,129.6,323.9,129.7z M322.8,135.8c-0.8,0.1-1.4,0.9-1.3,1.7c0.1,0.8,0.9,1.4,1.8,1.3
			c0.8-0.1,1.4-0.9,1.3-1.8C324.4,136.3,323.6,135.7,322.8,135.8z M321.7,141.9c-1,0.1-1.7,1.1-1.5,2.1s1.1,1.7,2.1,1.5
			c1-0.1,1.7-1.1,1.5-2.1C323.6,142.5,322.7,141.8,321.7,141.9z M320.5,148.1c-1.1,0.2-1.9,1.2-1.7,2.4s1.2,1.9,2.4,1.7
			c1.1-0.2,1.9-1.2,1.7-2.4C322.7,148.7,321.7,147.9,320.5,148.1z M332.8,119.4c0.1,0,0.2-0.2,0.2-0.3c0-0.1-0.2-0.2-0.3-0.2
			c-0.1,0-0.2,0.2-0.2,0.3S332.6,119.4,332.8,119.4z M332.2,125.4c0-0.3-0.3-0.5-0.6-0.5c-0.3,0-0.5,0.3-0.5,0.6
			c0,0.3,0.3,0.5,0.6,0.5C332.1,126,332.3,125.7,332.2,125.4z M330.5,131.1c-0.5,0.1-0.8,0.5-0.7,1c0.1,0.5,0.5,0.8,1,0.7
			s0.8-0.5,0.7-1C331.3,131.3,330.9,131,330.5,131.1z M329.3,137.2c-0.6,0.1-1.1,0.7-1,1.3c0.1,0.6,0.7,1.1,1.3,1
			c0.6-0.1,1.1-0.7,1-1.3C330.5,137.5,329.9,137.1,329.3,137.2z M328.2,143.3c-0.8,0.1-1.3,0.9-1.2,1.6s0.9,1.3,1.6,1.2
			c0.8-0.1,1.3-0.8,1.2-1.6C329.7,143.7,329,143.2,328.2,143.3z M327.1,149.4c-0.9,0.1-1.6,1-1.5,2s1,1.6,2,1.5c0.9-0.1,1.6-1,1.5-2
			C328.9,149.9,328,149.3,327.1,149.4z M338.1,126.4c-0.1,0-0.2,0.2-0.2,0.3c0,0.1,0.2,0.2,0.3,0.2c0.1,0,0.2-0.2,0.2-0.3
			C338.4,126.5,338.3,126.4,338.1,126.4z M337,132.5c-0.3,0-0.5,0.3-0.5,0.7c0,0.3,0.4,0.5,0.7,0.5s0.5-0.3,0.5-0.7
			C337.6,132.7,337.3,132.4,337,132.5z M335.8,138.6c-0.5,0.1-0.8,0.5-0.8,1c0.1,0.5,0.5,0.8,1,0.8c0.5-0.1,0.8-0.5,0.8-1
			C336.7,138.9,336.3,138.5,335.8,138.6z M334.6,144.7c-0.7,0.1-1.2,0.7-1,1.4s0.7,1.2,1.4,1s1.2-0.7,1-1.4S335.3,144.6,334.6,144.7
			z M333.4,150.8c-0.9,0.1-1.5,0.9-1.3,1.8c0.1,0.9,0.9,1.5,1.8,1.3c0.9-0.1,1.5-0.9,1.3-1.8C335.1,151.2,334.3,150.6,333.4,150.8z
			 M279.2,144.2c-0.2,0.4-0.5,0.8-0.8,1.1c-1.5-1.6-3.1-3.3-4.4-4.9c-0.1-0.1-0.2-0.2-0.3-0.3c-0.5-0.4-1-0.9-1.4-1.3
			c-0.1,0-0.1-0.1-0.2-0.1l-0.3,1.1c0,0-0.7,6-3.6,0.1c-0.2-0.4-0.4-0.8-0.6-1.2c-1.5-3.2-3.3-7.1-4.7-10.3c0,0-0.5-1.1-0.7-1.6
			c-0.3-0.5-0.6-1-0.9-1.5l-0.8,1.5c0,0-2,4.8-3-0.8c-0.8-4.5-2-11.1-2.6-15.4c-0.1-0.4-0.2-0.8-0.3-1.2l-1.5,1.7
			c0,0-3.2,3.9-2.4-2.5c0.6-4.7,1.2-11.2,1.8-15.3c0-0.3,0-0.7,0-1l-1.5,0.8c0,0-4.1,2.7-1.9-2.9c1.6-4.2,4-10.2,5.7-14
			c0.1-0.3,0.2-0.6,0.3-0.9l-1.5,0.3c0,0-4.6,1.3-1.6-2.8c2.7-3.6,6.8-9,9.6-12.4c0.2-0.3,0.3-0.5,0.5-0.8l-3.4-0.4
			c0,0-3.1-0.5,1.3-3.7c4-2.9,9.7-6.8,13.1-9.1l-3.5-0.9c0,0-3.3-0.8,0.4-2.2c4.7-1.8,13.1-5.1,17.4-6.6l-4.1-3c0,0-2.2-1.4,2-1.6
			c5.1-0.2,13.9-0.7,18.4-0.9l0,0c0,0,0,0,0.1,0l-3-3.6c0,0-2.6-2.8,1.6-1.7c5.2,1.3,14.1,3.3,18.5,4.3l-2.3-4.3
			c0,0-2.3-3.9,1.3-1.8c4.8,2.9,13.6,7.6,17.7,9.9l-1.6-7c0,0-1.4-5,2.3-0.7c4.2,4.7,11.1,12.5,14.3,15.8c4,3,6.8,7.6,7.6,12.9
			c1.7,10.9-5.9,21.1-16.8,22.7c-5.8,0.9-11.4-0.8-15.6-4.3c-4.7-3-10.4-4.2-16-3.4c-6.2,0.9-11.6,4.2-15.3,9.2
			c-4.6,6.3-5.6,14.1-3.4,21c0.3,0.9,0.6,1.8,1,2.6c0,0,0,0.1,0,0.1c0.9,2,2.2,3.9,3.7,5.6c-0.5,0.6-1.2,1.1-2.1,1.2
			c0.9,0.5,1.5,1.4,1.7,2.5c0.3,1.9-1,3.7-2.9,3.9c0,0,0,0,0,0c0.9,0.5,1.6,1.4,1.8,2.5c0.3,1.9-1,3.6-2.8,3.9c-0.1,0-0.2,0-0.2,0
			c1,0.4,1.8,1.4,2,2.5c0.3,1.8-1,3.5-2.8,3.8c-0.2,0-0.4,0-0.5,0c1.1,0.4,2,1.4,2.2,2.6c0.3,1.8-1,3.5-2.7,3.7
			c-1.7,0.3-3.3-0.8-3.7-2.5c-0.5,0.9-1.3,1.5-2.3,1.8c0.8,0.5,1.3,1.4,1.5,2.3c0,0.1,0,0.1,0,0.2c0.4-1,1.3-1.7,2.4-1.8
			c1.8-0.3,3.4,0.9,3.7,2.7c0.3,1.8-0.9,3.4-2.7,3.7c-1.8,0.3-3.4-0.9-3.6-2.7c0,0,0-0.1,0-0.1c-0.5,1.1-1.5,1.9-2.7,2.1
			c0,0-0.1,0-0.1,0c0.9,0.5,1.6,1.4,1.8,2.5c0.3,1.8-1,3.5-2.8,3.8C281.2,147.2,279.5,146,279.2,144.2z M282.6,133.9
			c-0.6-0.4-1.1-1-1.4-1.6c-0.4,0.5-1,1-1.7,1.2c0.5,0.5,0.9,1.1,1.1,1.8C281.2,134.6,281.8,134.1,282.6,133.9z M283.3,127.4
			c-0.4-0.3-0.8-0.8-1-1.2c-0.4,0.4-0.8,0.7-1.3,0.9c0.4,0.4,0.7,0.8,0.9,1.3C282.2,128,282.7,127.6,283.3,127.4z M284,120.9
			c-0.3-0.3-0.5-0.6-0.7-0.9c-0.3,0.3-0.6,0.5-1,0.7c0.3,0.3,0.5,0.6,0.6,1C283.3,121.4,283.6,121.1,284,120.9z M284.8,114.4
			c-0.2-0.2-0.3-0.4-0.5-0.6c-0.2,0.2-0.4,0.3-0.7,0.5c0.2,0.2,0.3,0.4,0.4,0.6C284.3,114.8,284.5,114.6,284.8,114.4z M285.6,108
			c-0.2-0.2-0.3-0.4-0.4-0.6l0,0c-0.1,0.1-0.2,0.2-0.3,0.3l0,0c0.1,0.2,0.3,0.3,0.4,0.5C285.3,108.1,285.5,108,285.6,108z
			 M291.1,128.5c-1-0.3-1.8-1.1-2.1-2.1c-0.4,0.7-1.1,1.3-1.9,1.6c0.6,0.5,1.1,1.2,1.2,2.1c0.5-0.8,1.3-1.4,2.3-1.5
			C290.7,128.5,290.9,128.5,291.1,128.5z M291.8,122c-0.8-0.3-1.4-1-1.8-1.8c-0.4,0.6-1,1-1.6,1.3c0.5,0.5,0.8,1.1,1,1.7
			c0.5-0.7,1.3-1.2,2.2-1.3C291.7,122.1,291.8,122.1,291.8,122z M292.7,115.6c-0.6-0.3-1.2-0.8-1.5-1.5c-0.4,0.5-0.8,0.9-1.4,1.2
			c0.4,0.4,0.6,0.9,0.8,1.4C291.1,116.1,291.8,115.7,292.7,115.6z M293.6,109.1c-0.5-0.3-0.9-0.7-1.3-1.2c-0.3,0.4-0.7,0.7-1.2,1
			c0.3,0.3,0.5,0.7,0.7,1.2C292.3,109.6,292.9,109.3,293.6,109.1z M268.7,123.1L268.7,123.1c0,0-0.1,0.1-0.1,0.1
			C268.7,123.1,268.7,123.1,268.7,123.1z M275.8,132.8c-0.4-0.3-0.8-0.8-1-1.2c-0.4,0.4-0.8,0.7-1.3,0.9c0.4,0.4,0.7,0.8,0.9,1.3
			C274.8,133.4,275.2,133,275.8,132.8z M276.5,126.3c-0.3-0.3-0.5-0.6-0.7-0.9c-0.3,0.3-0.6,0.5-1,0.7c0.3,0.3,0.5,0.6,0.6,1
			C275.8,126.8,276.2,126.5,276.5,126.3z M277.3,119.9c-0.2-0.2-0.3-0.4-0.5-0.6c-0.2,0.2-0.4,0.3-0.7,0.5c0.2,0.2,0.3,0.4,0.4,0.6
			C276.8,120.2,277.1,120,277.3,119.9z M279.6,142c0.5-0.9,1.4-0.9,2.4-1.9h0c-0.8,0-1.5-1-1.8-2c-0.5,0.7-1.2,1.3-2.1,1.5
			C278.9,140.2,279.4,141,279.6,142z M291.2,150.9c-0.3-1.8-1.9-3-3.7-2.7c-1.5,0.2-2.6,1.4-2.7,2.9c1.1,0.1,1.4-1.5,1.4-2.3
			c0.9,0.5,1.8,0.9,2.8,1.4c0.7,0.5,1.5,1,2.2,1.4C291.2,151.3,291.2,151.1,291.2,150.9z M297.3,151.9c-0.2-1.6-1.8-2.8-3.4-2.5
			c-1.3,0.2-2.2,1.1-2.5,2.3c1.6,1,3.3,2,4.8,3C297,154,297.5,153,297.3,151.9z M303.4,153c-0.2-1.5-1.6-2.6-3.2-2.3
			c-1.5,0.2-2.6,1.6-2.3,3.2s1.6,2.6,3.2,2.3c0.7-0.1,1.3-0.4,1.7-0.9c0-0.2-0.1-0.4-0.1-0.5c0.2,0,0.3,0.1,0.5,0.1
			C303.4,154.2,303.5,153.6,303.4,153z M309.5,154c-0.2-1.4-1.5-2.3-2.9-2.1c-1.4,0.2-2.3,1.5-2.1,2.9c0,0.1,0,0.1,0,0.2
			c0.5,0.1,1.1,0.2,1.6,0.3c0.9,0.3,1.8,0.5,2.8,0.8C309.4,155.5,309.6,154.8,309.5,154z M315.6,155.1c-0.2-1.3-1.4-2.1-2.6-2
			c-1.3,0.2-2.1,1.4-2,2.6c0.1,0.4,0.2,0.7,0.4,1c1,0.3,1.9,0.5,2.8,0.8C315.2,157.1,315.8,156.1,315.6,155.1z M319.4,154.3
			c-1.1,0.2-1.9,1.2-1.8,2.4c0.2,1.1,1.2,1.9,2.4,1.8c0.1,0,0.3-0.1,0.4-0.1c0.7-0.6,0-1.9-0.4-2.6c0.6,0,1.1-0.1,1.7-0.1
			C321.3,154.8,320.3,154.2,319.4,154.3z M341.1,146.1c-0.5,0.1-0.9,0.6-0.8,1.1c0.1,0.5,0.6,0.9,1.1,0.8c0.5-0.1,0.9-0.6,0.8-1.1
			C342.2,146.4,341.7,146,341.1,146.1z M347.7,147.5c-0.4,0.1-0.7,0.4-0.6,0.8c0,0.2,0.1,0.3,0.3,0.5c0.1,0.1,0.3,0.2,0.5,0.1
			c0.3,0,0.5-0.2,0.6-0.5c0-0.1,0.1-0.2,0-0.4C348.4,147.7,348.1,147.4,347.7,147.5z M348.8,141.4c-0.2,0-0.3,0.2-0.3,0.4
			c0,0.2,0.2,0.3,0.4,0.3c0.2,0,0.3-0.2,0.3-0.4C349.1,141.5,349,141.4,348.8,141.4z M342.3,140c-0.4,0.1-0.7,0.4-0.6,0.9
			s0.4,0.7,0.9,0.6s0.7-0.4,0.6-0.9C343.1,140.2,342.7,139.9,342.3,140z M343.4,134c-0.2,0-0.3,0.2-0.2,0.3s0.2,0.3,0.3,0.2
			c0.2,0,0.3-0.2,0.2-0.3C343.7,134.1,343.5,133.9,343.4,134z"/>
	</g>
</g>
</svg>
