<svg xmlns="http://www.w3.org/2000/svg" width="164" height="22" viewBox="0 0 164 22"><path d="M33,0H27.77a7,7,0,0,0-6.55,4.54L17.16,15.35a1,1,0,0,1-.93.65H11A5,5,0,0,1,11,6h4a3,3,0,0,0,0-6H11a11,11,0,0,0,0,22h5.23a7,7,0,0,0,6.55-4.54L26.84,6.65A1,1,0,0,1,27.77,6H33a5,5,0,0,1,0,10H29a3,3,0,0,0,0,6h4A11,11,0,0,0,33,0Z" style="fill:#3bc0c3"/><path d="M88.5,8A6.51,6.51,0,0,0,82,1.5H75A1.5,1.5,0,0,0,73.5,3V19a1.5,1.5,0,0,0,3,0V4.5H82a3.5,3.5,0,0,1,0,7,1.52,1.52,0,0,0-1.36.86,1.49,1.49,0,0,0,.21,1.6l5,6a1.49,1.49,0,0,0,2.11.19A1.49,1.49,0,0,0,88.15,18l-3.44-4.13A6.52,6.52,0,0,0,88.5,8Z" style="fill:#455a64"/><path d="M64.5,4.5h4a1.5,1.5,0,0,0,0-3h-4a9.5,9.5,0,0,0,0,19h4a1.5,1.5,0,0,0,0-3h-4a6.5,6.5,0,0,1,0-13Z" style="fill:#455a64"/><path d="M115.5,1.5h-4a1.5,1.5,0,0,0,0,3h4a6.5,6.5,0,0,1,0,13h-4a1.5,1.5,0,0,0,0,3h4a9.5,9.5,0,0,0,0-19Z" style="fill:#455a64"/><path d="M105,4.5a1.5,1.5,0,0,0,0-3H94A1.5,1.5,0,0,0,92.5,3V19A1.5,1.5,0,0,0,94,20.5h11a1.5,1.5,0,0,0,0-3H95.5v-5H103a1.5,1.5,0,0,0,0-3H95.5v-5Z" style="fill:#455a64"/><path d="M130.5,1.5A1.5,1.5,0,0,0,129,3V19a1.5,1.5,0,0,0,3,0V3A1.5,1.5,0,0,0,130.5,1.5Z" style="fill:#455a64"/><path d="M162.5,1.5A1.5,1.5,0,0,0,161,3V19a1.5,1.5,0,0,0,3,0V3A1.5,1.5,0,0,0,162.5,1.5Z" style="fill:#455a64"/><path d="M155,1.58a1.52,1.52,0,0,0-1.67.48L146.5,10.6l-6.83-8.54A1.5,1.5,0,0,0,137,3V19a1.5,1.5,0,0,0,3,0V7.28l5.33,6.66a1.5,1.5,0,0,0,2.34,0L153,7.28V19a1.5,1.5,0,0,0,3,0V3A1.51,1.51,0,0,0,155,1.58Z" style="fill:#455a64"/></svg>