<?xml version="1.0" encoding="UTF-8"?>
<svg width="301px" height="78px" viewBox="0 0 301 78" version="1.1" xmlns="http://www.w3.org/2000/svg" xmlns:xlink="http://www.w3.org/1999/xlink">
    <!-- Generator: Sketch 48.2 (47327) - http://www.bohemiancoding.com/sketch -->
    <title>logo_extrategy_2col_ist</title>
    <desc>Created with Sketch.</desc>
    <defs></defs>
    <g id="Page-1" stroke="none" stroke-width="1" fill="none" fill-rule="evenodd">
        <g id="logo_extrategy_2col_ist" transform="translate(0.000000, -9.000000)">
            <polyline id="Fill-1" fill="#007D9F" points="66.805 19.236 56.448 19.236 35.682 52.856 45.836 52.856 66.805 19.236"></polyline>
            <path d="M24.441,28.986 C23.701,27.371 21.952,24.682 17.583,24.682 C15.834,24.682 14.892,25.017 14.22,25.288 C10.455,26.834 9.581,30.599 9.38,31.742 L25.113,31.742 C25.113,31.742 24.912,30.129 24.441,28.986 M31.166,48.822 C29.282,50.571 24.778,53.864 17.852,53.864 C15.7,53.864 10.389,53.596 5.814,49.36 C1.983,45.729 0.571,41.09 0.571,35.845 C0.571,33.019 0.974,30.332 2.051,27.775 C3.528,24.413 7.697,18.226 17.449,18.226 C24.98,18.226 28.947,22.127 30.696,24.682 C32.241,27.035 33.789,31.136 33.99,37.659 L9.111,37.659 C9.244,38.669 9.581,40.753 11.263,42.769 C12.405,44.183 14.422,45.998 18.592,45.998 C22.76,45.998 25.181,44.047 26.256,42.905 C26.525,42.637 26.93,42.097 27.399,41.359 L34.258,45.326 C33.721,46.066 32.78,47.342 31.166,48.822" id="Fill-2" fill="#007D9F"></path>
            <path d="M85.752,53.126 C81.315,53.126 79.027,52.049 77.683,50.436 C77.011,49.628 76.742,48.822 76.676,48.485 C76.339,47.41 76.271,45.057 76.271,42.097 L76.271,24.95 L71.363,24.95 L71.363,19.236 L76.271,19.236 L76.271,9.922 L84.34,9.922 L84.34,19.236 L91.536,19.236 L91.536,24.95 L84.34,24.95 L84.34,40.217 C84.34,41.559 84.139,44.114 85.148,45.191 C86.089,46.268 88.04,46.2 88.241,46.2 C89.384,46.2 90.527,46.064 91.536,45.795 L91.536,52.586 C90.459,52.721 88.508,53.126 85.752,53.126" id="Fill-3" fill="#007D9F"></path>
            <path d="M106.879,32.952 C106.275,34.835 106.275,36.518 106.275,38.467 L106.275,52.856 L98.473,52.856 L98.473,19.237 L106.275,19.237 L106.275,24.009 C106.812,23.002 107.484,21.991 108.291,21.251 C110.98,18.631 115.351,18.497 116.293,18.497 L116.965,18.497 L116.965,26.766 C115.284,26.766 108.828,26.766 106.879,32.952" id="Fill-4" fill="#007D9F"></path>
            <path d="M142.043,36.113 C140.697,36.785 138.95,37.459 135.655,37.995 C133.838,38.332 131.89,38.4 130.209,39.407 C129.066,40.149 128.258,41.292 128.258,42.77 C128.258,44.786 129.738,46.737 133.773,46.737 C138.21,46.737 140.833,44.451 141.573,42.904 C142.109,41.829 142.043,40.887 142.043,39.81 L142.043,36.113 Z M142.043,52.855 L141.842,50.233 C140.563,51.312 139.421,51.848 138.748,52.116 C136.529,53.127 134.445,53.663 131.958,53.663 C130.342,53.663 124.291,53.462 121.198,48.486 C120.66,47.612 119.652,45.795 119.718,43.107 C119.718,41.224 120.189,37.459 124.291,34.703 C127.048,32.82 129.67,32.415 132.763,31.809 C137.739,30.802 139.554,30.399 142.043,29.523 C142.043,28.648 141.975,27.573 141.573,26.765 C140.899,25.491 139.219,24.48 136.261,24.48 C133.168,24.48 131.218,25.423 130.342,26.566 C129.401,27.708 129.469,29.053 129.469,29.523 L121.264,29.053 C121.332,27.573 121.601,24.009 124.896,21.319 C126.982,19.572 130.141,18.225 135.99,18.225 C141.505,18.225 144.732,19.368 146.818,20.85 C148.23,21.857 148.968,23.002 149.237,23.54 C150.112,25.287 150.112,27.641 150.112,29.523 L150.112,47.411 C150.112,49.966 150.246,50.704 151.592,52.855 L142.043,52.855 Z" id="Fill-5" fill="#007D9F"></path>
            <path d="M169.069,53.126 C164.632,53.126 162.344,52.049 161,50.436 C160.328,49.628 160.059,48.822 159.993,48.485 C159.656,47.41 159.588,45.057 159.588,42.097 L159.588,24.95 L154.68,24.95 L154.68,19.236 L159.588,19.236 L159.588,9.922 L167.657,9.922 L167.657,19.236 L174.853,19.236 L174.853,24.95 L167.657,24.95 L167.657,40.217 C167.657,41.559 167.456,44.114 168.465,45.191 C169.406,46.268 171.357,46.2 171.558,46.2 C172.701,46.2 173.844,46.064 174.853,45.795 L174.853,52.586 C173.776,52.721 171.826,53.126 169.069,53.126" id="Fill-6" fill="#007D9F"></path>
            <path d="M201.611,28.986 C200.871,27.371 199.122,24.682 194.752,24.682 C193.003,24.682 192.062,25.017 191.39,25.288 C187.625,26.834 186.751,30.599 186.55,31.742 L202.283,31.742 C202.283,31.742 202.082,30.129 201.611,28.986 M208.336,48.822 C206.451,50.571 201.948,53.864 195.022,53.864 C192.87,53.864 187.559,53.596 182.986,49.36 C179.153,45.729 177.741,41.09 177.741,35.845 C177.741,33.019 178.143,30.332 179.22,27.775 C180.698,24.413 184.868,18.226 194.619,18.226 C202.15,18.226 206.116,22.127 207.865,24.682 C209.411,27.035 210.957,31.136 211.16,37.659 L186.28,37.659 C186.414,38.669 186.751,40.753 188.432,42.769 C189.575,44.183 191.593,45.998 195.762,45.998 C199.93,45.998 202.351,44.047 203.426,42.905 C203.695,42.637 204.1,42.097 204.569,41.359 L211.429,45.326 C210.891,46.066 209.949,47.342 208.336,48.822" id="Fill-7" fill="#007D9F"></path>
            <path d="M239.866,31.204 C239.328,29.389 237.513,25.423 232.066,25.423 C230.924,25.423 228.233,25.622 226.081,27.975 C223.728,30.532 223.796,33.625 223.796,34.702 C223.796,35.777 223.796,38.669 225.948,41.088 C226.285,41.425 227.023,42.165 228.1,42.704 C228.772,43.039 230.116,43.577 232.134,43.577 C235.361,43.577 237.178,42.299 238.119,41.292 C240.405,39.006 240.405,36.045 240.405,34.97 C240.405,33.087 240.135,31.944 239.866,31.204 M246.053,58.976 C243.969,61.798 239.597,64.087 231.999,64.087 C224.468,64.087 220.77,62.001 218.686,59.044 C217.878,57.833 217.274,56.419 216.6,53.529 L225.477,53.597 C225.678,54.269 225.814,54.672 226.285,55.276 C228.032,57.833 231.731,57.765 232.336,57.765 C236.37,57.765 238.454,56.22 239.328,54.604 C240.269,52.857 240.203,51.108 240.203,47.343 C236.438,50.703 231.731,50.907 230.05,50.907 C228.032,50.907 225.814,50.571 223.929,49.696 C220.367,48.15 215.525,44.114 215.525,34.902 C215.525,33.827 215.525,30.666 216.668,27.708 C218.953,21.857 224.402,18.227 230.722,18.227 C231.865,18.227 235.092,18.361 237.85,20.379 C239.06,21.252 239.934,22.397 240.203,22.8 L240.203,19.236 L248.205,19.236 L248.205,46.872 C248.205,50.771 248.608,55.547 246.053,58.976" id="Fill-8" fill="#007D9F"></path>
            <path d="M275.499,48.553 C274.289,52.721 272.542,59.851 269.381,62.404 C267.296,64.087 265.145,64.422 262.522,64.422 C259.965,64.422 259.026,64.221 257.747,63.951 L257.747,56.957 C260.974,57.362 262.791,56.957 264,55.95 C265.009,55.009 265.278,54 265.414,53.529 L253.242,19.236 L261.916,19.236 L269.448,44.317 L275.768,19.236 L284.039,19.236 L275.499,48.553" id="Fill-9" fill="#007D9F"></path>
            <polyline id="Fill-10" fill="#D2DB2F" points="42.598 9.923 32.242 9.923 65.752 63.951 75.905 63.951 42.598 9.923"></polyline>
            <path d="M88.214,78.903 L89.724,78.903 C89.482,80.017 88.965,80.908 88.175,81.572 C87.388,82.237 86.455,82.569 85.381,82.569 C84.187,82.569 83.287,82.23 82.679,81.551 C82.07,80.872 81.767,79.868 81.767,78.539 C81.767,77.763 81.891,77.032 82.139,76.346 C82.389,75.657 82.757,75.037 83.243,74.482 C83.701,73.967 84.228,73.577 84.821,73.309 C85.414,73.04 86.06,72.906 86.755,72.906 C87.842,72.906 88.685,73.194 89.283,73.771 C89.882,74.347 90.197,75.171 90.226,76.239 L88.681,76.239 C88.681,75.612 88.498,75.119 88.133,74.763 C87.769,74.406 87.268,74.229 86.629,74.229 C85.751,74.229 84.99,74.656 84.346,75.514 C83.701,76.371 83.379,77.408 83.379,78.623 C83.379,79.437 83.562,80.061 83.93,80.494 C84.298,80.927 84.826,81.142 85.517,81.142 C86.121,81.142 86.665,80.944 87.145,80.545 C87.626,80.147 87.983,79.6 88.214,78.903" id="Fill-11" fill="#828889"></path>
            <path d="M96.798,74.229 C96.317,74.229 95.884,74.334 95.499,74.547 C95.116,74.759 94.778,75.079 94.49,75.51 C94.202,75.945 93.973,76.458 93.804,77.05 C93.634,77.641 93.548,78.222 93.548,78.793 C93.548,79.561 93.739,80.155 94.122,80.57 C94.504,80.986 95.047,81.194 95.755,81.194 C96.733,81.194 97.534,80.763 98.156,79.901 C98.778,79.037 99.089,77.927 99.089,76.571 C99.089,75.806 98.894,75.226 98.503,74.826 C98.114,74.427 97.544,74.229 96.798,74.229 Z M91.954,78.675 C91.954,76.983 92.421,75.596 93.357,74.513 C94.294,73.43 95.493,72.889 96.96,72.889 C98.118,72.889 99.033,73.234 99.705,73.924 C100.374,74.614 100.71,75.554 100.71,76.748 C100.71,78.434 100.241,79.817 99.306,80.896 C98.37,81.978 97.168,82.518 95.703,82.518 C94.515,82.518 93.594,82.182 92.938,81.509 C92.282,80.835 91.954,79.889 91.954,78.675 Z" id="Fill-12" fill="#828889"></path>
            <path d="M109.573,76.714 C109.573,75.957 109.376,75.362 108.987,74.929 C108.596,74.496 108.062,74.278 107.383,74.278 C106.46,74.278 105.68,74.717 105.041,75.594 C104.402,76.472 104.082,77.563 104.082,78.869 C104.082,79.628 104.269,80.223 104.642,80.66 C105.016,81.095 105.525,81.312 106.17,81.312 C107.143,81.312 107.953,80.877 108.6,80.006 C109.248,79.136 109.573,78.037 109.573,76.714 Z M108.672,82.271 L108.859,81.142 C108.428,81.629 107.972,81.989 107.488,82.22 C107.005,82.453 106.477,82.569 105.907,82.569 C104.831,82.569 103.996,82.237 103.399,81.572 C102.802,80.908 102.504,79.97 102.504,78.758 C102.504,77.99 102.621,77.252 102.857,76.544 C103.092,75.838 103.424,75.215 103.853,74.679 C104.295,74.141 104.81,73.721 105.401,73.422 C105.993,73.124 106.607,72.973 107.248,72.973 C107.881,72.973 108.44,73.118 108.926,73.405 C109.412,73.695 109.82,74.124 110.148,74.694 L111.157,69.774 L112.634,69.774 L110.047,82.271 L108.672,82.271 Z" id="Fill-13" fill="#828889"></path>
            <path d="M115.269,71.607 L115.651,69.774 L117.161,69.774 L116.778,71.607 L115.269,71.607 Z M112.994,82.271 L114.903,73.186 L116.431,73.186 L114.505,82.271 L112.994,82.271 Z" id="Fill-14" fill="#828889"></path>
            <path d="M117.531,82.271 L119.458,73.186 L120.848,73.186 L120.55,74.542 C121.054,74.029 121.578,73.645 122.126,73.397 C122.671,73.148 123.251,73.024 123.869,73.024 C124.672,73.024 125.28,73.192 125.696,73.525 C126.112,73.859 126.32,74.347 126.32,74.992 C126.32,75.139 126.308,75.308 126.282,75.497 C126.257,75.686 126.215,75.898 126.16,76.128 L124.878,82.271 L123.335,82.271 L124.598,76.35 C124.643,76.128 124.676,75.94 124.695,75.781 C124.716,75.623 124.725,75.476 124.725,75.341 C124.725,75.013 124.607,74.759 124.369,74.58 C124.132,74.402 123.798,74.313 123.367,74.313 C122.498,74.313 121.779,74.603 121.212,75.179 C120.648,75.756 120.249,76.601 120.016,77.715 L119.057,82.271 L117.531,82.271" id="Fill-15" fill="#828889"></path>
            <path d="M132.917,74.212 C131.973,74.212 131.206,74.624 130.617,75.446 C130.029,76.27 129.736,77.345 129.736,78.675 C129.736,79.449 129.924,80.048 130.304,80.473 C130.684,80.896 131.218,81.11 131.908,81.11 C132.881,81.11 133.665,80.692 134.261,79.857 C134.858,79.024 135.156,77.921 135.156,76.554 C135.156,75.823 134.96,75.251 134.563,74.835 C134.166,74.42 133.619,74.212 132.917,74.212 Z M127.657,83.172 L129.167,83.172 L129.167,83.315 C129.167,83.74 129.348,84.078 129.709,84.329 C130.071,84.581 130.561,84.707 131.177,84.707 C132.139,84.707 132.842,84.467 133.287,83.986 C133.729,83.504 134.076,82.586 134.324,81.228 C133.987,81.617 133.592,81.913 133.146,82.109 C132.699,82.308 132.207,82.407 131.67,82.407 C130.556,82.407 129.688,82.067 129.07,81.388 C128.45,80.71 128.139,79.76 128.139,78.539 C128.139,76.916 128.591,75.568 129.493,74.496 C130.396,73.424 131.519,72.889 132.865,72.889 C133.556,72.889 134.137,73.04 134.609,73.339 C135.082,73.638 135.446,74.084 135.699,74.679 L136.031,73.186 L137.508,73.186 L135.572,82.424 C135.312,83.668 134.822,84.581 134.105,85.165 C133.386,85.746 132.394,86.038 131.126,86.038 C130.035,86.038 129.184,85.79 128.572,85.293 C127.962,84.795 127.657,84.101 127.657,83.214 L127.657,83.172 Z" id="Fill-16" fill="#828889"></path>
            <path d="M147.198,82.271 C146.983,82.334 146.784,82.382 146.603,82.416 C146.422,82.449 146.267,82.466 146.138,82.466 C145.497,82.466 145.02,82.346 144.703,82.102 C144.387,81.86 144.229,81.491 144.229,80.999 C144.229,80.885 144.24,80.742 144.267,80.566 C144.292,80.391 144.33,80.164 144.381,79.887 L145.543,74.433 L144.229,74.433 L144.507,73.186 L145.806,73.186 L146.332,70.717 L147.86,70.717 L147.334,73.186 L148.903,73.186 L148.64,74.433 L147.063,74.433 L145.875,80.048 C145.84,80.191 145.815,80.317 145.798,80.425 C145.781,80.536 145.772,80.626 145.772,80.694 C145.772,80.858 145.833,80.984 145.955,81.076 C146.077,81.165 146.246,81.211 146.468,81.211 C146.615,81.211 146.767,81.202 146.925,81.186 C147.084,81.169 147.257,81.142 147.444,81.11 L147.198,82.271" id="Fill-17" fill="#828889"></path>
            <path d="M154.219,74.229 C153.738,74.229 153.305,74.334 152.92,74.547 C152.536,74.759 152.199,75.079 151.911,75.51 C151.623,75.945 151.394,76.458 151.224,77.05 C151.055,77.641 150.969,78.222 150.969,78.793 C150.969,79.561 151.159,80.155 151.543,80.57 C151.924,80.986 152.468,81.194 153.175,81.194 C154.154,81.194 154.955,80.763 155.577,79.901 C156.198,79.037 156.509,77.927 156.509,76.571 C156.509,75.806 156.315,75.226 155.924,74.826 C155.535,74.427 154.964,74.229 154.219,74.229 Z M149.374,78.675 C149.374,76.983 149.842,75.596 150.778,74.513 C151.714,73.43 152.914,72.889 154.381,72.889 C155.538,72.889 156.454,73.234 157.125,73.924 C157.795,74.614 158.13,75.554 158.13,76.748 C158.13,78.434 157.661,79.817 156.727,80.896 C155.79,81.978 154.589,82.518 153.124,82.518 C151.936,82.518 151.014,82.182 150.358,81.509 C149.702,80.835 149.374,79.889 149.374,78.675 Z" id="Fill-18" fill="#828889"></path>
            <path d="M164.844,79.09 L166.278,79.09 C166.278,79.125 166.276,79.163 166.274,79.209 C166.27,79.254 166.268,79.319 166.268,79.403 C166.268,80.038 166.471,80.517 166.875,80.841 C167.279,81.167 167.876,81.329 168.662,81.329 C169.238,81.329 169.696,81.205 170.031,80.956 C170.369,80.708 170.537,80.372 170.537,79.947 C170.537,79.653 170.451,79.409 170.281,79.212 C170.111,79.018 169.677,78.757 168.975,78.428 C168.868,78.377 168.712,78.306 168.509,78.217 C166.829,77.435 165.988,76.55 165.988,75.56 C165.988,74.763 166.291,74.12 166.896,73.634 C167.502,73.148 168.311,72.906 169.324,72.906 C170.375,72.906 171.195,73.169 171.78,73.699 C172.366,74.227 172.658,74.963 172.658,75.909 L172.658,76.104 L171.25,76.104 L171.25,76.052 C171.25,75.436 171.084,74.973 170.752,74.662 C170.422,74.351 169.928,74.194 169.272,74.194 C168.717,74.194 168.281,74.303 167.962,74.521 C167.642,74.738 167.481,75.034 167.481,75.407 C167.481,75.859 167.985,76.315 168.992,76.773 C169.038,76.796 169.066,76.811 169.078,76.817 C170.401,77.416 171.231,77.906 171.567,78.284 C171.904,78.663 172.072,79.14 172.072,79.718 C172.072,80.584 171.742,81.278 171.08,81.8 C170.419,82.323 169.53,82.586 168.416,82.586 C167.306,82.586 166.431,82.304 165.79,81.741 C165.147,81.179 164.827,80.41 164.827,79.437 C164.827,79.348 164.828,79.277 164.83,79.226 C164.834,79.174 164.838,79.13 164.844,79.09" id="Fill-19" fill="#828889"></path>
            <path d="M174.071,82.271 L176.728,69.774 L178.238,69.774 L177.254,74.448 C177.717,73.973 178.215,73.618 178.745,73.38 C179.278,73.143 179.844,73.024 180.443,73.024 C181.251,73.024 181.86,73.192 182.268,73.525 C182.674,73.859 182.878,74.353 182.878,75.009 C182.878,75.173 182.867,75.35 182.844,75.539 C182.821,75.728 182.787,75.922 182.743,76.121 L181.436,82.271 L179.892,82.271 L181.156,76.35 C181.208,76.123 181.244,75.924 181.267,75.751 C181.288,75.579 181.299,75.419 181.299,75.272 C181.299,74.984 181.175,74.751 180.927,74.576 C180.677,74.4 180.344,74.313 179.926,74.313 C179.06,74.313 178.343,74.603 177.775,75.179 C177.206,75.756 176.806,76.601 176.575,77.715 L175.616,82.271 L174.071,82.271" id="Fill-20" fill="#828889"></path>
            <path d="M190.408,77.698 C189.95,77.868 189.344,77.982 188.589,78.037 C187.833,78.095 187.339,78.152 187.107,78.207 C186.666,78.31 186.338,78.49 186.123,78.747 C185.909,79.004 185.8,79.344 185.8,79.769 C185.8,80.216 185.938,80.57 186.208,80.833 C186.479,81.097 186.847,81.228 187.311,81.228 C188.188,81.228 188.888,80.929 189.411,80.328 C189.933,79.729 190.267,78.852 190.408,77.698 Z M189.933,81.245 C189.531,81.68 189.092,82.006 188.613,82.226 C188.135,82.443 187.614,82.552 187.048,82.552 C186.166,82.552 185.478,82.306 184.982,81.814 C184.488,81.322 184.24,80.639 184.24,79.769 C184.24,78.797 184.547,78.077 185.165,77.614 C185.781,77.151 186.822,76.872 188.287,76.783 C188.316,76.783 188.354,76.779 188.405,76.773 C190.051,76.666 190.875,76.21 190.875,75.407 C190.875,75.013 190.738,74.723 190.463,74.538 C190.189,74.355 189.752,74.263 189.153,74.263 C188.31,74.263 187.725,74.372 187.4,74.593 C187.074,74.814 186.842,75.224 186.7,75.823 L185.19,75.823 C185.348,74.868 185.756,74.151 186.416,73.672 C187.074,73.196 187.988,72.958 189.153,72.958 C190.21,72.958 191.024,73.143 191.596,73.512 C192.167,73.882 192.453,74.404 192.453,75.077 C192.453,75.15 192.441,75.261 192.418,75.407 C192.395,75.554 192.352,75.804 192.283,76.155 L191.451,80.006 C191.417,80.137 191.394,80.263 191.379,80.387 C191.365,80.513 191.358,80.637 191.358,80.761 C191.358,80.925 191.411,81.049 191.514,81.135 C191.619,81.219 191.777,81.263 191.985,81.263 C192.048,81.263 192.111,81.257 192.172,81.249 C192.235,81.242 192.3,81.228 192.369,81.211 L192.138,82.271 C192.002,82.306 191.859,82.331 191.707,82.348 C191.552,82.365 191.375,82.373 191.171,82.373 C190.765,82.373 190.456,82.279 190.246,82.088 C190.038,81.9 189.933,81.617 189.933,81.245 Z" id="Fill-21" fill="#828889"></path>
            <path d="M194.051,82.271 L195.96,73.186 L197.419,73.186 L197.038,74.873 C197.547,74.154 197.993,73.657 198.378,73.376 C198.764,73.097 199.174,72.958 199.608,72.958 C199.711,72.958 199.82,72.963 199.935,72.973 C200.051,72.984 200.175,73.001 200.305,73.024 L199.923,74.746 C199.912,74.746 199.896,74.746 199.881,74.746 C199.677,74.723 199.525,74.711 199.422,74.711 C198.67,74.711 198.054,74.975 197.573,75.501 C197.091,76.027 196.736,76.83 196.504,77.91 L195.561,82.271 L194.051,82.271" id="Fill-22" fill="#828889"></path>
            <path d="M202.483,76.918 L207.462,76.918 C207.474,76.866 207.481,76.815 207.485,76.762 C207.487,76.708 207.489,76.626 207.489,76.519 C207.489,75.806 207.304,75.247 206.932,74.839 C206.562,74.433 206.057,74.229 205.418,74.229 C204.689,74.229 204.068,74.461 203.556,74.929 C203.043,75.394 202.687,76.058 202.483,76.918 Z M208.601,79.302 C208.385,80.32 207.901,81.12 207.146,81.699 C206.391,82.279 205.462,82.569 204.357,82.569 C203.164,82.569 202.25,82.228 201.613,81.547 C200.978,80.864 200.659,79.886 200.659,78.606 C200.659,76.926 201.102,75.554 201.991,74.486 C202.879,73.42 204.022,72.889 205.418,72.889 C206.543,72.889 207.44,73.221 208.103,73.885 C208.769,74.549 209.101,75.444 209.101,76.571 C209.101,76.784 209.089,77.021 209.066,77.278 C209.043,77.536 209.011,77.83 208.965,78.156 L202.237,78.156 C202.237,78.167 202.237,78.182 202.237,78.2 C202.214,78.448 202.202,78.623 202.202,78.726 C202.202,79.546 202.404,80.17 202.809,80.601 C203.213,81.03 203.801,81.245 204.569,81.245 C205.181,81.245 205.708,81.072 206.152,80.723 C206.597,80.376 206.894,79.901 207.047,79.302 L208.601,79.302 Z" id="Fill-23" fill="#828889"></path>
            <path d="M294.286,21.917 L293.198,21.917 L293.198,24.247 L294.32,24.247 C294.955,24.247 295.409,24.158 295.685,23.982 C295.961,23.804 296.097,23.521 296.097,23.128 C296.097,22.703 295.957,22.395 295.67,22.204 C295.382,22.013 294.921,21.917 294.286,21.917 Z M294.521,21.061 C295.5,21.061 296.233,21.222 296.724,21.545 C297.215,21.866 297.461,22.346 297.461,22.984 C297.461,23.483 297.321,23.899 297.041,24.23 C296.758,24.56 296.365,24.776 295.855,24.876 L297.427,28.088 L295.938,28.088 L294.506,25.087 L293.198,25.087 L293.198,28.088 L291.872,28.088 L291.872,21.061 L294.521,21.061 Z M299.762,24.755 C299.762,24.005 299.634,23.302 299.373,22.646 C299.108,21.991 298.731,21.414 298.228,20.915 C297.714,20.396 297.128,19.999 296.474,19.727 C295.817,19.457 295.122,19.321 294.381,19.321 C293.648,19.321 292.96,19.453 292.314,19.716 C291.668,19.978 291.105,20.356 290.621,20.849 C290.096,21.38 289.687,21.979 289.404,22.646 C289.121,23.313 288.981,23.999 288.981,24.704 C288.981,25.405 289.117,26.077 289.389,26.724 C289.661,27.37 290.05,27.952 290.564,28.468 C291.067,28.982 291.649,29.379 292.302,29.656 C292.956,29.932 293.633,30.072 294.328,30.072 C295.057,30.072 295.753,29.936 296.406,29.668 C297.06,29.399 297.657,29.008 298.198,28.492 C298.7,27.999 299.09,27.432 299.358,26.792 C299.63,26.149 299.762,25.471 299.762,24.755 Z M294.354,18.497 C295.201,18.497 296.002,18.654 296.758,18.967 C297.518,19.281 298.19,19.738 298.78,20.339 C299.358,20.921 299.8,21.59 300.106,22.34 C300.416,23.092 300.571,23.876 300.571,24.696 C300.571,25.543 300.416,26.338 300.106,27.081 C299.8,27.823 299.35,28.481 298.761,29.054 C298.152,29.647 297.465,30.102 296.705,30.42 C295.945,30.737 295.163,30.894 294.354,30.894 C293.531,30.894 292.745,30.737 291.996,30.42 C291.248,30.102 290.575,29.641 289.982,29.037 C289.393,28.441 288.943,27.772 288.633,27.03 C288.327,26.287 288.172,25.509 288.172,24.696 C288.172,23.876 288.335,23.085 288.656,22.319 C288.977,21.554 289.442,20.866 290.046,20.254 C290.613,19.678 291.263,19.239 291.996,18.943 C292.726,18.646 293.512,18.497 294.354,18.497 Z" id="Fill-24" fill="#828889"></path>
        </g>
    </g>
</svg>