<?xml version="1.0" encoding="UTF-8"?>
<svg width="263px" height="78px" viewBox="0 0 263 78" version="1.1" xmlns="http://www.w3.org/2000/svg" xmlns:xlink="http://www.w3.org/1999/xlink">
    <!-- Generator: Sketch 53 (72520) - https://sketchapp.com -->
    <title>print_logo-liferay-full-color</title>
    <desc>Created with Sketch.</desc>
    <g id="Page-1" stroke="none" stroke-width="1" fill="none" fill-rule="evenodd">
        <g id="print_logo-liferay-full-color">
            <path d="M46,31.002 C46,31.555 45.552,32.002 45,32.002 L39,32.002 C38.448,32.002 38,31.555 38,31.002 L38,25.002 C38,24.45 38.448,24.002 39,24.002 L45,24.002 C45.552,24.002 46,24.45 46,25.002 L46,31.002 Z M46,41.002 C46,41.555 45.552,42.002 45,42.002 L39,42.002 C38.448,42.002 38,41.555 38,41.002 L38,35.002 C38,34.45 38.448,34.002 39,34.002 L45,34.002 C45.552,34.002 46,34.45 46,35.002 L46,41.002 Z M46,51.002 C46,51.555 45.552,52.002 45,52.002 L39,52.002 C38.448,52.002 38,51.555 38,51.002 L38,45.002 C38,44.45 38.448,44.002 39,44.002 L45,44.002 C45.552,44.002 46,44.45 46,45.002 L46,51.002 Z M36,21.002 C36,21.555 35.552,22.002 35,22.002 L29,22.002 C28.448,22.002 28,21.555 28,21.002 L28,15.002 C28,14.45 28.448,14.002 29,14.002 L35,14.002 C35.552,14.002 36,14.45 36,15.002 L36,21.002 Z M36,41.002 C36,41.555 35.552,42.002 35,42.002 L29,42.002 C28.448,42.002 28,41.555 28,41.002 L28,35.002 C28,34.45 28.448,34.002 29,34.002 L35,34.002 C35.552,34.002 36,34.45 36,35.002 L36,41.002 Z M36,51.002 C36,51.555 35.552,52.002 35,52.002 L29,52.002 C28.448,52.002 28,51.555 28,51.002 L28,45.002 C28,44.45 28.448,44.002 29,44.002 L35,44.002 C35.552,44.002 36,44.45 36,45.002 L36,51.002 Z M26,21.002 C26,21.555 25.552,22.002 25,22.002 L19,22.002 C18.448,22.002 18,21.555 18,21.002 L18,15.002 C18,14.45 18.448,14.002 19,14.002 L25,14.002 C25.552,14.002 26,14.45 26,15.002 L26,21.002 Z M26,31.002 C26,31.555 25.552,32.002 25,32.002 L19,32.002 C18.448,32.002 18,31.555 18,31.002 L18,25.002 C18,24.45 18.448,24.002 19,24.002 L25,24.002 C25.552,24.002 26,24.45 26,25.002 L26,31.002 Z M26,51.002 C26,51.555 25.552,52.002 25,52.002 L19,52.002 C18.448,52.002 18,51.555 18,51.002 L18,45.002 C18,44.45 18.448,44.002 19,44.002 L25,44.002 C25.552,44.002 26,44.45 26,45.002 L26,51.002 Z M16,21.002 C16,21.555 15.552,22.002 15,22.002 L9,22.002 C8.448,22.002 8,21.555 8,21.002 L8,15.002 C8,14.45 8.448,14.002 9,14.002 L15,14.002 C15.552,14.002 16,14.45 16,15.002 L16,21.002 Z M16,31.002 C16,31.555 15.552,32.002 15,32.002 L9,32.002 C8.448,32.002 8,31.555 8,31.002 L8,25.002 C8,24.45 8.448,24.002 9,24.002 L15,24.002 C15.552,24.002 16,24.45 16,25.002 L16,31.002 Z M16,41.002 C16,41.555 15.552,42.002 15,42.002 L9,42.002 C8.448,42.002 8,41.555 8,41.002 L8,35.002 C8,34.45 8.448,34.002 9,34.002 L15,34.002 C15.552,34.002 16,34.45 16,35.002 L16,41.002 Z M50,6.002 L4,6.002 C1.79,6.002 0,7.794 0,10.002 L0,56.002 C0,58.212 1.79,60.002 4,60.002 L50,60.002 C52.209,60.002 54,58.212 54,56.002 L54,10.002 C54,7.794 52.209,6.002 50,6.002 L50,6.002 Z" id="Fill-1" fill="#23478B"></path>
            <path d="M98.413,55.647 L74.659,55.647 L74.659,6.669 C74.659,6.397 74.438,6.177 74.165,6.177 L70.493,6.177 C70.22,6.177 70,6.397 70,6.669 L70,59.302 C70,59.575 70.22,59.795 70.493,59.795 L98.413,59.795 C98.686,59.795 98.907,59.575 98.907,59.302 L98.907,56.14 C98.907,55.868 98.686,55.647 98.413,55.647" id="Fill-2" fill="#101518"></path>
            <path d="M133.49,20.457 L125.118,20.458 L125.118,12.659 C125.118,7.144 126.926,4.463 130.646,4.463 C132.11,4.463 133.615,4.821 134.997,5.499 C135.125,5.562 135.273,5.566 135.405,5.511 C135.536,5.456 135.637,5.347 135.682,5.212 L136.64,2.337 C136.72,2.096 136.605,1.834 136.372,1.731 C134.468,0.881 132.357,0.395 130.582,0.395 C124.146,0.395 120.601,4.665 120.601,12.42 L120.601,20.492 L115.791,20.794 C115.532,20.81 115.329,21.025 115.329,21.286 L115.329,24.033 C115.329,24.305 115.55,24.526 115.823,24.526 L120.601,24.526 L120.601,59.302 C120.601,59.575 120.822,59.795 121.094,59.795 L124.624,59.795 C124.897,59.795 125.118,59.575 125.118,59.302 L125.118,24.526 L133.49,24.526 C133.762,24.526 133.983,24.305 133.983,24.033 L133.983,20.95 C133.983,20.678 133.762,20.457 133.49,20.457" id="Fill-3" fill="#101518"></path>
            <path d="M139.098,37.213 C139.998,29.132 145.121,23.535 151.7,23.535 C158.559,23.535 162.392,28.387 162.529,37.213 L139.098,37.213 Z M151.668,19.499 C143.322,19.499 134.451,26.753 134.451,40.198 C134.451,52.301 141.945,60.754 152.674,60.754 C158.393,60.754 161.913,58.855 165.028,56.91 C165.249,56.772 165.324,56.485 165.2,56.256 L163.747,53.573 C163.68,53.449 163.563,53.36 163.426,53.328 C163.289,53.296 163.144,53.323 163.03,53.405 C159.827,55.665 156.643,56.717 153.01,56.717 C144.938,56.717 139.386,50.466 139.074,41.106 L166.149,41.106 C166.388,41.106 166.593,40.934 166.634,40.698 C166.816,39.656 166.841,38.617 166.841,37.738 C166.841,26.317 161.168,19.499 151.668,19.499 L151.668,19.499 Z" id="Fill-4" fill="#101518"></path>
            <path d="M192.381,20.348 C191.159,19.745 189.994,19.499 188.361,19.499 C184.34,19.499 180.588,22.048 177.695,26.712 L177.383,20.924 C177.37,20.662 177.153,20.457 176.891,20.457 L173.905,20.457 C173.632,20.457 173.412,20.678 173.412,20.95 L173.412,59.302 C173.412,59.575 173.632,59.795 173.905,59.795 L177.434,59.795 C177.706,59.795 177.927,59.575 177.927,59.302 L177.927,33.314 C180.377,27.291 184.007,23.839 187.897,23.839 C189.263,23.839 189.918,23.991 191.198,24.449 C191.329,24.496 191.473,24.485 191.596,24.419 C191.719,24.354 191.809,24.239 191.842,24.104 L192.641,20.91 C192.697,20.685 192.589,20.451 192.381,20.348" id="Fill-5" fill="#101518"></path>
            <path d="M219.98,28.28 L219.98,50.603 C215.85,54.774 212.29,56.637 208.46,56.637 C200.837,56.637 196.287,50.486 196.287,40.183 C196.287,30.893 201.998,23.615 209.291,23.615 C213.051,23.615 216.258,25.013 219.98,28.28 Z M224.002,20.457 L220.92,20.457 C220.662,20.457 220.447,20.658 220.428,20.916 L220.228,23.815 C216.914,21.206 213.686,19.499 209.131,19.499 C198.97,19.499 191.594,28.204 191.594,40.198 C191.594,53.069 197.708,60.754 207.95,60.754 C212.167,60.754 216.391,58.858 220.209,55.262 L220.525,59.34 C220.543,59.597 220.758,59.795 221.015,59.795 L224.002,59.795 C224.275,59.795 224.496,59.575 224.496,59.302 L224.496,20.95 C224.496,20.678 224.275,20.457 224.002,20.457 L224.002,20.457 Z" id="Fill-6" fill="#101518"></path>
            <path d="M262.242,20.665 C262.149,20.535 261.998,20.457 261.839,20.457 L258.229,20.457 C258.018,20.457 257.83,20.592 257.762,20.793 L249.599,44.896 C249.168,46.173 248.716,47.579 248.253,49.021 C247.624,50.981 246.976,52.999 246.326,54.853 C245.524,52.851 244.695,50.674 243.889,48.561 C243.397,47.271 242.92,46.02 242.476,44.878 L233.227,20.773 C233.154,20.583 232.97,20.457 232.766,20.457 L228.95,20.457 C228.786,20.457 228.632,20.539 228.54,20.674 C228.449,20.81 228.431,20.982 228.492,21.135 L244.176,60.041 L243.177,63.204 C241.681,67.692 238.843,73.043 233.821,73.043 C232.776,73.043 231.577,72.725 230.867,72.452 C230.737,72.403 230.591,72.41 230.466,72.473 C230.341,72.537 230.25,72.65 230.213,72.785 L229.399,75.836 C229.337,76.067 229.451,76.31 229.668,76.411 C230.814,76.939 232.354,77.254 233.789,77.254 C239.7,77.254 244.325,72.769 247.161,64.29 L262.304,21.113 C262.357,20.963 262.334,20.795 262.242,20.665" id="Fill-7" fill="#101518"></path>
            <path d="M108.327,20.457 L104.797,20.457 C104.525,20.457 104.304,20.678 104.304,20.95 L104.304,59.302 C104.304,59.575 104.525,59.795 104.797,59.795 L108.327,59.795 C108.599,59.795 108.82,59.575 108.82,59.302 L108.82,20.95 C108.82,20.678 108.599,20.457 108.327,20.457" id="Fill-8" fill="#101518"></path>
            <path d="M109.455,10.7 C109.455,11.308 108.958,11.805 108.35,11.805 L104.774,11.805 C104.166,11.805 103.668,11.308 103.668,10.7 L103.668,7.124 C103.668,6.516 104.166,6.019 104.774,6.019 L108.35,6.019 C108.958,6.019 109.455,6.516 109.455,7.124 L109.455,10.7" id="Fill-9" fill="#101518"></path>
        </g>
    </g>
</svg>