<?xml version="1.0" encoding="utf-8"?>
<!-- Generator: Adobe Illustrator 13.0.1, SVG Export Plug-In . SVG Version: 6.00 Build 14948)  -->
<!DOCTYPE svg PUBLIC "-//W3C//DTD SVG 1.1//EN" "http://www.w3.org/Graphics/SVG/1.1/DTD/svg11.dtd">
<svg version="1.1" id="Livello_1" xmlns="http://www.w3.org/2000/svg" xmlns:xlink="http://www.w3.org/1999/xlink" x="0px" y="0px"
	 width="512px" height="100px" viewBox="0 0 512 100" enable-background="new 0 0 512 100" xml:space="preserve">
<g>
	<path fill="#1A171B" d="M118.606,91.882l-1.321-15.984h4.511l0.163,1.14c1.633,10.424,6.939,15.632,15.979,15.632
		c3.886,0,7.239-1.213,10.021-3.676c2.804-2.445,4.196-5.389,4.196-8.806c0-2.138-0.726-4.021-2.163-5.667
		c-1.431-1.578-4.936-3.899-10.451-6.896l-5.377-2.96c-10.281-5.642-15.432-11.96-15.432-18.912c0-5.155,1.897-9.23,5.687-12.203
		c3.784-3.014,8.909-4.52,15.402-4.52c5.476,0,11.503,1.201,18.05,3.589v13.32h-4.514l-0.172-1.092
		c-0.289-1.856-0.639-3.438-1.089-4.766c-0.451-1.346-1.103-2.493-1.972-3.528c-0.841-1.015-2.054-1.952-3.609-2.777
		c-1.579-0.852-3.869-1.292-6.903-1.292c-3.184,0-5.817,0.931-7.844,2.768c-2.039,1.853-3.049,4.22-3.049,7.113
		c0,4.22,3.995,8.553,12.009,12.999l5.971,3.301c5.848,3.238,9.892,6.229,12.135,8.961c2.202,2.753,3.304,6.13,3.304,10.114
		c0,5.541-2.214,9.986-6.643,13.341c-4.426,3.38-10.277,5.066-17.546,5.066C130.314,96.146,123.847,94.729,118.606,91.882z"/>
	<path fill="#1A171B" d="M184.641,39.09c3.309-4.4,7.379-6.607,12.188-6.607c3.886,0,7.099,1.586,9.592,4.736
		c2.467,3.179,3.729,7.222,3.729,12.209c0,3.233-1.126,5.278-3.418,6.142c-2.283,0.855-7.684,1.28-16.264,1.28h-11.869
		C179.315,49.391,181.348,43.485,184.641,39.09z M202.747,89.076c-6.914,0-12.689-2.478-17.351-7.422
		c-4.665-4.966-6.983-11.174-6.983-18.627c0-0.489,0-1.401,0.051-2.717h43.515v-1.812c0-9.292-2.167-16.51-6.548-21.691
		c-4.37-5.19-10.508-7.777-18.381-7.777c-8.755,0-16.033,3.187-21.85,9.555c-5.826,6.382-8.719,14.382-8.719,24.04
		c0,9.734,3.023,17.767,9.09,24.05c6.066,6.312,13.806,9.471,23.192,9.471c7.828,0,15.847-2.396,24.161-7.21v-5.319
		C216.061,87.256,209.339,89.076,202.747,89.076z"/>
	<path fill="#1A171B" d="M245.439,39.09c3.289-4.4,7.374-6.607,12.209-6.607c3.895,0,7.092,1.586,9.558,4.736
		c2.485,3.179,3.736,7.222,3.736,12.209c0,3.233-1.123,5.278-3.416,6.142c-2.268,0.855-7.719,1.28-16.27,1.28h-11.874
		C240.113,49.391,242.136,43.485,245.439,39.09z M263.535,89.076c-6.898,0-12.678-2.478-17.359-7.422
		c-4.657-4.966-6.983-11.174-6.983-18.627c0-0.489,0.03-1.401,0.061-2.717h43.545v-1.812c0-9.292-2.198-16.51-6.565-21.691
		c-4.378-5.19-10.507-7.777-18.387-7.777c-8.753,0-16.057,3.187-21.848,9.555c-5.827,6.382-8.74,14.382-8.74,24.04
		c0,9.734,3.034,17.767,9.116,24.05c6.051,6.312,13.776,9.471,23.196,9.471c7.794,0,15.849-2.396,24.156-7.21v-5.319
		C276.861,87.256,270.129,89.076,263.535,89.076z"/>
	<path fill="#1A171B" d="M308.71,96.146l-17.252-50.237c-2.629-7.784-5.106-11.699-7.445-11.699h-0.734v-3.444h24.253v3.444h-0.726
		c-4.157,0-6.208,1.262-6.208,3.78c0,0.681,0.17,1.581,0.509,2.673c0.387,1.302,0.593,2.057,0.627,2.283
		c0.481,1.827,0.771,2.828,0.854,3.018l11.629,33.834l17.267-49.032h3.599l20.363,49.491l10.478-34.293
		c1.084-3.738,1.64-6.417,1.64-8.088c0-2.427-1.672-3.665-5.015-3.665h-0.838v-3.444h17.566v3.444h-0.846
		c-2.819,0-5.466,3.926-7.907,11.753l-15.749,50.183h-3.585l-20.672-50.964l-18.09,50.964H308.71z"/>
	<path fill="#1A171B" d="M396.615,39.09c3.32-4.4,7.385-6.607,12.189-6.607c3.902,0,7.103,1.586,9.586,4.736
		c2.475,3.179,3.72,7.222,3.72,12.209c0,3.233-1.11,5.278-3.402,6.142c-2.278,0.855-7.69,1.28-16.255,1.28h-11.885
		C391.317,49.391,393.319,43.485,396.615,39.09z M414.711,89.076c-6.896,0-12.672-2.478-17.344-7.422
		c-4.655-4.966-6.991-11.174-6.991-18.627c0-0.489,0.021-1.401,0.058-2.717h43.54v-1.812c0-9.292-2.188-16.51-6.567-21.691
		c-4.374-5.19-10.496-7.777-18.38-7.777c-8.751,0-16.029,3.187-21.866,9.555c-5.807,6.382-8.721,14.382-8.721,24.04
		c0,9.734,3.024,17.767,9.097,24.05c6.076,6.312,13.812,9.471,23.223,9.471c7.788,0,15.849-2.396,24.137-7.21v-5.319
		C428.038,87.256,421.314,89.076,414.711,89.076z"/>
	<path fill="#1A171B" d="M465.71,40.192c2.983-1.222,5.897-1.837,8.711-1.837c6.223,0,11.257,2.462,15.192,7.398
		c3.924,4.933,5.881,11.342,5.881,19.207c0,7.895-1.928,14.411-5.817,19.517c-3.89,5.113-8.828,7.656-14.842,7.656
		c-3.248,0-6.547-0.842-9.91-2.494c-3.378-1.657-6.178-3.86-8.45-6.583V45.733C459.654,43.27,462.737,41.433,465.71,40.192z
		 M452.654,92.669c3.177,1.134,6.373,1.995,9.597,2.602c3.208,0.563,6.422,0.875,9.652,0.875c10.34,0,18.752-3.334,25.263-9.952
		c6.527-6.607,9.786-15.164,9.786-25.629c0-9.154-2.462-16.683-7.459-22.621c-4.929-5.941-11.273-8.914-18.937-8.914
		c-3.76,0-7.648,0.995-11.677,2.973c-4.002,1.982-8.115,4.936-12.405,8.905V0.933l-21.098,7.644v0.815l3.246,1.397
		c3.421,1.501,5.508,2.983,6.237,4.495c0.743,1.496,1.103,5.024,1.103,10.557v70.676L452.654,92.669z"/>
	<path fill="#1A171B" d="M77.949,50.789H61.061c15.532,0,23.257,10.492,17.266,23.426c-5.993,12.96-23.432,23.452-38.95,23.452
		h16.869c15.518,0,32.947-10.492,38.93-23.452C101.176,61.28,93.453,50.789,77.949,50.789z"/>
	<path fill="#1A171B" d="M44.687,50.789H27.812c15.528,0,23.257,10.492,17.28,23.426c-6.021,12.96-23.467,23.452-38.964,23.452
		h16.858c15.534,0,32.949-10.492,38.956-23.452C67.938,61.28,60.21,50.789,44.687,50.789z"/>
	<path fill="#F3C844" d="M100.856,1.242h-16.85c15.527,0,23.242,10.508,17.25,23.448C95.249,37.614,77.82,48.13,62.297,48.13h16.874
		c15.502,0,32.947-10.516,38.955-23.441C124.123,11.75,116.403,1.242,100.856,1.242z"/>
	<path fill="#1A171B" d="M67.638,1.242H50.749c15.538,0,23.246,10.508,17.259,23.448C62.027,37.614,44.571,48.13,29.063,48.13h16.85
		c15.507,0,32.958-10.516,38.934-23.441C90.875,11.75,83.146,1.242,67.638,1.242z"/>
</g>
</svg>
