<?xml version="1.0" encoding="UTF-8"?>
<svg width="287px" height="59px" viewBox="0 0 287 59" version="1.1" xmlns="http://www.w3.org/2000/svg" xmlns:xlink="http://www.w3.org/1999/xlink" xmlns:sketch="http://www.bohemiancoding.com/sketch/ns">
    <!-- Generator: Sketch 3.1.1 (8761) - http://www.bohemiancoding.com/sketch -->
    <title>Group 14</title>
    <desc>Created with Sketch.</desc>
    <defs></defs>
    <g id="Page-1" stroke="none" stroke-width="1" fill="none" fill-rule="evenodd" sketch:type="MSPage">
        <g id="SITEGROUND-color-black" sketch:type="MSLayerGroup" transform="translate(0.000000, 1.000000)">
            <g id="Group-14" sketch:type="MSShapeGroup">
                <path d="M62.965,10.826 C58.623,3.608 48.901,7.738 50.979,16.07 C53.766,27.25 67.378,29.928 72.395,39.894 C75.149,45.367 73.424,50.84 69.209,53.241 C64.886,55.704 57.58,56.68 53.092,53.388 C50.842,51.737 51.03,50.492 49.842,53.597 C49.46,54.595 48.826,55.692 47.588,54.641 C45.64,52.985 45.68,47.733 48.962,45.499 C51.054,44.383 52.473,44.972 54.41,46.888 C59.112,50.751 65.094,49.602 66.643,46.404 C67.639,44.348 66.635,41.131 64.637,38.886 C61.746,35.638 57.189,32.839 53.438,28.457 C48.491,22.678 44.717,16.21 47.184,9.838 C49.33,4.293 55.496,-0.814 62.774,2.869 C67.075,5.046 71.272,10.016 68.866,14.947 C67.206,18.35 62.072,19.441 59.699,15.922 C58.267,13.799 64.166,12.789 62.965,10.826" id="Fill-1" fill="#1A1918"></path>
                <path d="M81.956,22.465 C82.153,28.614 75.169,28.138 74.981,22.234 C74.895,19.572 77.065,18.844 78.493,18.941 C79.113,18.983 79.995,19.344 80.715,19.979 C81.391,20.576 81.923,21.417 81.956,22.465" id="Fill-2" fill="#1A1918"></path>
                <path d="M75.521,36.197 C75.42,36.26 75.321,36.318 75.225,36.372 C72.259,38.027 73.153,34.648 74.749,32.658 C76.361,30.649 77.713,29.901 78.965,30.075 C80.084,30.23 80.938,30.891 81.137,31.854 C81.944,35.755 77.552,46.69 82.198,49.573 C83.133,50.152 84.176,49.951 84.873,49.137 C85.746,48.12 85.866,46.459 86.957,46.128 C87.449,45.979 87.854,46.188 88.035,47.492 C88.36,51.417 86.611,57.027 81.263,55.104 C76.504,52.939 76.711,43.843 76.729,38.853 C76.731,38.515 76.603,35.53 75.521,36.197" id="Fill-3" fill="#1A1918"></path>
                <path d="M93.481,46.476 L93.324,46.68 L93.073,46.692 C93.073,46.692 92.956,46.462 92.627,45.783 C92.299,45.104 91.075,40.731 91.007,40.656 C90.941,40.58 89.859,36.541 89.734,36.116 C89.605,35.689 89.699,35.409 89.699,35.409 C89.699,35.409 89.83,35.087 90.113,34.838 C90.394,34.588 91.451,34.26 91.451,34.26 L91.662,34.25 L91.847,34.595 L92.291,37.603 L93.264,43.771 L93.591,46.116 L93.481,46.476 L93.481,46.476 Z M109.967,29.442 C109.522,28.408 108.813,27.752 107.7,27.794 C105.077,28.001 104.566,27.898 102.115,28.045 C99.662,28.19 97.565,28.295 95.82,28.36 C96.16,25.361 96.501,22.36 96.844,19.36 C97.792,10.641 97.834,5.273 96.971,3.258 C96.319,1.733 95.274,1.135 93.838,1.466 C91.601,1.879 91.07,5.74 90.824,12.995 C90.706,17.093 91.045,22.284 91.608,29.124 C91.074,29.254 89.443,29.728 88.371,30.045 C87.3,30.361 86.447,30.698 85.81,31.052 C85.443,31.233 85.262,31.613 85.263,32.194 C85.264,32.774 85.43,33.446 85.755,34.209 C86.618,36.224 87.954,39.286 89.765,43.395 C91.573,47.504 92.792,50.295 93.422,51.767 C94.518,54.325 95.939,55.572 97.685,55.509 C99.091,55.457 99.931,55.259 100.202,54.918 C100.477,54.576 100.333,53.751 99.773,52.444 C98.235,48.85 97.203,45.291 96.681,41.77 C96.397,39.956 96.255,36.427 96.233,33.385 C101.701,32.128 105.452,32.464 108.592,31.629 L108.755,31.571 C109.967,30.809 109.297,31.204 109.717,30.746 C110.138,30.288 110.199,29.986 109.967,29.442 L109.967,29.442 Z" id="Fill-4" fill="#1A1918"></path>
                <path d="M113.551,43.452 C117.994,42.031 121.633,38.188 121.965,36.086 C122.591,32.114 116.51,28.701 114.264,35.213 C113.692,36.873 113.536,40.537 113.551,43.452 L113.551,43.452 Z M129.072,48.596 C125.685,52.828 120.914,56.672 115.526,55.151 C112.459,54.061 110.467,51.048 109.474,47.38 C108.542,43.936 108.493,39.914 109.268,36.368 C110.486,30.794 113.853,26.213 117.789,26.166 C125.184,26.905 128.967,35.084 125.198,40.854 C123.098,44.065 118.747,45.7 116.637,46.71 C115.84,47.093 115.207,47.27 115.315,48.831 C115.569,52.578 121.913,52.519 125.91,44.258 C126.278,43.498 128.774,40.219 130.403,41.204 C133.815,43.267 129.49,48.075 129.072,48.596 L129.072,48.596 Z" id="Fill-5" fill="#1A1918"></path>
                <path d="M158.893,33.99 C158.569,37.328 163.618,54.595 159.987,54.892 C157.846,55.068 156.532,55.291 155.969,54.14 C155.436,53.044 157.541,44.158 155.813,46.852 C155.416,47.471 155.493,47.521 154.854,48.665 C148.905,59.305 140.835,56.477 136.143,47.823 C133.327,42.629 131.727,35.339 132.53,27.601 C133.81,15.256 139.108,-0.927 151.567,1.731 C161.356,3.82 154.616,16.906 151.194,13.562 C143.108,-4.158 126.983,38.631 144.825,48.968 C149.977,51.954 154.381,42.222 153.325,37.938 C152.584,34.928 152.41,34.824 150.914,35.273 C149.752,35.623 145.767,39.038 144.655,38.005 C143.26,36.712 142.507,31.625 145.301,31.478 C148.534,31.31 150.366,32.358 154.184,27.746 C157.655,23.553 160.483,24.804 159.887,29.343 C159.625,31.331 159.041,32.463 158.893,33.99" id="Fill-7" fill="#1A1918"></path>
                <path d="M181.823,27.647 C179.811,26.096 175.563,24.258 171.668,24.662 C166.237,25.224 161.213,28.879 161.729,34.588 C161.95,37.025 162.196,47.43 163.123,51.706 C163.442,53.167 164.276,54.533 165.719,54.922 C167.078,55.288 168.801,54.909 169.459,53.367 C170.352,51.277 169.368,49.34 168.862,47.567 C167.832,43.966 167.366,38.951 167.075,35.85 C166.475,29.477 176.135,28.603 178.416,32.312 C176.776,34.849 179.153,36.442 182.125,34.139 C184.809,32.059 183.733,29.123 181.823,27.647" id="Fill-8" fill="#1A1918"></path>
                <path d="M188.952,38.714 C190.519,22.381 201.265,29.979 202.648,40.621 C204.023,51.168 186.653,57.485 188.952,38.714 L188.952,38.714 Z M195.019,55.481 C208.39,53.227 213.533,32.436 196.949,25.342 C179.696,19.753 178.805,58.88 195.019,55.481 L195.019,55.481 Z" id="Fill-9" fill="#1A1918"></path>
                <path d="M214.31,34.128 C212.245,38.767 213.058,57.375 222.654,48.559 C224.745,46.637 225.011,40.462 224.228,35.175 C224.046,33.957 223.017,30.246 222.671,29.129 C222.232,27.703 223.417,25.713 225.22,25.105 C226.683,24.613 228.331,25.494 228.933,26.923 C229.933,29.305 229.275,33.212 229.167,34.811 C228.849,39.58 228.07,45.448 229.769,48.534 C230.493,49.852 231.495,49.985 231.531,50.967 C231.658,54.477 227.48,56.726 225.892,54.547 C225.468,53.966 225.82,53.007 225.173,52.575 C217.285,59.659 208.595,54.104 208.728,43.959 C208.757,41.742 208.449,38.123 209.251,34.983 C209.876,32.541 210.273,30.213 211.548,28.891 C213.22,27.683 214.083,28.409 214.617,28.808 C215.788,29.688 214.91,32.462 214.31,34.128" id="Fill-10" fill="#1A1918"></path>
                <path d="M249.585,49.95 C250.992,45.165 252.638,37.356 251.587,34.467 C250.011,30.136 244.007,28.548 241.044,32.98 C239.226,35.698 239.177,45.427 241.492,51.119 C242.044,52.48 241.017,54.378 239.263,54.957 C232.661,57.142 237.792,38.848 233.939,33.004 C233.109,31.747 232.097,31.621 231.984,30.683 C231.577,27.332 235.576,25.187 237.335,27.266 C237.804,27.822 237.529,28.736 238.206,29.148 C245.529,22.39 256.425,27.469 257.095,37.149 C257.322,40.402 256.37,47.467 254.519,51.94 C254.001,53.192 253.411,54.242 252.759,54.947 C251.187,56.099 250.265,55.408 249.701,55.026 C248.46,54.186 249.118,51.541 249.585,49.95" id="Fill-11" fill="#1A1918"></path>
                <path d="M267.824,49.012 C276.535,55.322 279.285,38.969 274.943,32.913 C269.62,25.486 256.14,39.903 267.824,49.012 L267.824,49.012 Z M278.669,28.658 C279.292,23.415 277.095,8.177 273.066,7.794 C271.982,7.69 271.726,5.048 272.468,3.479 C273.208,1.91 274.949,1.415 277.849,2.613 C282.495,4.532 282.849,21.989 282.943,27.248 C283.033,32.301 282.786,38.569 283.56,43.356 C283.853,45.176 284.359,46.624 284.878,47.802 C285.724,49.721 286.568,51.05 286.023,52.135 C284.843,54.485 281.245,55.406 280.023,54.245 C279.175,53.438 278.8,51.982 278.585,50.272 C271.644,61.32 260.628,52.627 259.072,42.002 C257.57,31.749 266.906,19.85 278.669,28.658 L278.669,28.658 Z" id="Fill-12" fill="#1A1918"></path>
                <path d="M31.994,4.39 C31.994,4.39 32.143,5.166 32.178,6.286 C32.284,9.468 31.419,11.511 29.173,13.753 C28.715,14.211 28.196,14.688 27.618,15.181 C35.299,19.957 39.311,30.403 34.852,37.703 C28.835,47.539 16.909,45.3 10.394,38.568 C3.574,31.517 4.477,22.396 9.376,15.634 C14.43,8.658 23.719,4.152 31.994,4.39 L31.994,4.39 Z M13.217,45.281 C6.403,43.052 1.542,36.433 0.351,29.498 C-2.935,10.353 17.436,-6.921 37.785,2.671 C38.026,6.971 36.03,13.09 30.549,14.929 C57.75,32.101 34.494,67.279 5.99,55.711 C0.786,53.06 3.565,48.212 9.125,51.02 C15.335,53.161 23.403,53.161 28.487,50.354 C31.766,48.562 34.7,46.111 36.764,42.98 C37.344,42.1 38.116,40.784 38.727,39.349 C39.158,38.334 40.547,34.146 39.469,33.693 C39.2,33.58 39.057,33.9 38.983,34.2 C38.295,36.981 36.944,39.387 35.088,41.555 C32.909,44.1 30.159,46.039 26.686,47.304 C22.622,48.786 17.911,48.972 11.433,47.555 C11.861,47.092 12.719,45.804 13.217,45.281 L13.217,45.281 Z" id="Fill-13" fill="#8FC351"></path>
                <path d="M22.538,35.587 C35.801,36.072 29.446,22.506 20.737,19.508 C12.105,16.538 7.306,35.586 22.538,35.587 L22.538,35.587 Z M8.843,25.984 C10.305,11.387 27.1,8.494 33.346,27.951 C38.383,47.948 6.528,43.597 8.843,25.984 L8.843,25.984 Z" id="Fill-15" fill="#1A1918"></path>
            </g>
        </g>
    </g>
</svg>