<?xml version="1.0" encoding="utf-8"?>
<!-- Generator: Adobe Illustrator 16.0.3, SVG Export Plug-In . SVG Version: 6.00 Build 0)  -->
<!DOCTYPE svg PUBLIC "-//W3C//DTD SVG 1.1//EN" "http://www.w3.org/Graphics/SVG/1.1/DTD/svg11.dtd">
<svg version="1.1" xmlns="http://www.w3.org/2000/svg" xmlns:xlink="http://www.w3.org/1999/xlink" x="0px" y="0px" width="623.6px"
	 height="255.1px" viewBox="0 0 623.6 255.1" style="enable-background:new 0 0 623.6 255.1;" xml:space="preserve">
<style type="text/css">
<![CDATA[
	.st0{fill:#4E2817;}
	.st1{fill:#F26922;}
	.st2{fill:#FFFFFF;}
]]>
</style>
<g id="BG">
	<rect class="st2" width="623.6" height="255.1"/>
</g>
<g id="Logo">
	<g>
		<path class="st0" d="M136.6,239.2c-6.6,0-12.3-0.8-17.6-5.9l6.8-6.8c3.4,3.4,7.9,3.9,11,3.9c3.6,0,7.3-1.2,7.3-4.3
			c0-2.1-1.1-3.5-4.4-3.8l-6.6-0.7c-7.4-0.8-12-3.9-12-11.6c0-8.5,7.5-13.2,16-13.2c6.4,0,11.8,1.1,15.8,4.8l-6.3,6.4
			c-2.4-2.2-6-2.7-9.6-2.7c-4.2,0-5.9,1.9-5.9,3.9c0,1.5,0.7,3.3,4.3,3.6l6.6,0.7c8.2,0.8,12.3,5.1,12.3,12.1
			C154.1,234.9,146.3,239.2,136.6,239.2z"/>
		<path class="st0" d="M172.1,238.8c-8.4,0-12-5.9-12-11.8v-20.4h-4.4v-8h4.4v-12.2h10.3v12.2h7.3v7.9h-7.3v19.9
			c0,2.4,1.1,3.7,3.6,3.7h3.7v8.7H172.1L172.1,238.8z"/>
		<path class="st0" d="M182.3,190.4V182h10.6v8.4H182.3z M182.5,238.8v-41.3h10.3v41.3H182.5z"/>
		<path class="st0" d="M216.1,239.2c-8.3,0-18.5-4.5-18.5-21.2c0-16.7,10.3-21.1,18.5-21.1c5.7,0,10.1,1.7,13.7,5.6l-7,7
			c-2.2-2.3-3.9-3.3-6.7-3.3c-2.5,0-4.4,0.9-5.9,2.7c-1.6,2-2.3,4.8-2.3,9.2c0,4.4,0.8,7.2,2.3,9.2c1.5,1.9,3.4,2.7,5.9,2.7
			c2.7,0,4.5-1,6.7-3.3l7,6.9C226.1,237.5,221.8,239.2,216.1,239.2z"/>
		<path class="st0" d="M258.2,238.8l-10.2-17.3l-4.4,4.9v12.3h-10.3v-56.5h10.3v32l13.8-16.9h12.5l-14.8,16.7l15.8,24.7H258.2
			L258.2,238.8z"/>
		<path class="st0" d="M279.6,221.3c0,5.4,3.3,9.2,9.1,9.2c4.5,0,6.8-1.3,9.4-3.9l6.2,6.1c-4.2,4.2-8.3,6.6-15.7,6.6
			c-9.7,0-19.1-4.5-19.1-21.2c0-13.4,7.3-21.1,18-21.1c11.5,0,18,8.4,18,19.8v4.6H279.6L279.6,221.3z M294.4,209.8
			c-1.1-2.5-3.4-4.3-6.9-4.3c-3.5,0-5.8,1.9-6.9,4.3c-0.7,1.5-0.9,2.6-1,4.5h15.7C295.3,212.5,295,211.4,294.4,209.8z"/>
		<path class="st0" d="M332.8,208.7c-1.6-1.6-3-2.5-5.5-2.5c-3.2,0-6.7,2.4-6.7,7.6v24.9h-10.3v-41.3h10.1v3.9c2-2.4,6-4.5,10.4-4.5
			c4,0,6.9,1,9.7,3.9L332.8,208.7z"/>
		<path class="st1" d="M387,196.9c-5.1,0-8.9,1.6-12.3,5.2c-2.6-3.6-6.3-5.2-10.9-5.2c-3.8,0-7.6,1.5-10.3,4.3v-3.7h-10.1v41.3h10.3
			v-25c0-5.7,3.6-7.5,6.9-7.5c3.3,0,6.8,1.9,6.8,7.5v25h10.3v-25.2c0-5.4,3.7-7.3,6.9-7.3c3.3,0,6.8,1.9,6.8,7.5v25h10.3v-26.4
			c0-4.5-1.2-8.4-4.5-11.8C394.9,198.4,391.2,196.9,387,196.9z"/>
		<path class="st1" d="M431.8,222.4c0,5.7-3.6,7.5-6.9,7.5c-3.3,0-6.8-1.9-6.8-7.5v-24.9h-10.3v26.4c0,4.5,0.9,8.4,4.2,11.7
			c2.3,2.3,5.7,3.6,9.7,3.6c3.8,0,7.6-1.4,10.3-4.3v3.8h10.1v-41.3h-10.3V222.4z"/>
		<path class="st1" d="M459,226.3v-44h-10.3V227c0,5.9,3.6,11.8,12,11.8h5.9v-8.7h-3.9C460.1,230.1,459,228.9,459,226.3z"/>
		<path class="st1" d="M504.6,216.7c0-11.4-6.6-19.8-18-19.8c-10.7,0-18,7.6-18,21.1c0,16.7,9.4,21.2,19.1,21.2
			c7.4,0,11.5-2.3,15.7-6.6l-6.2-6.1c-2.6,2.6-4.8,3.9-9.4,3.9c-5.8,0-9.1-3.9-9.1-9.2h25.9V216.7z M478.7,214.3
			c0.1-1.9,0.3-3,1-4.5c1.1-2.5,3.4-4.3,6.9-4.3s5.8,1.9,6.9,4.3c0.7,1.5,0.9,2.6,1,4.5H478.7z"/>
		<path class="st0" d="M330.9,170.2c-1.4,0.7-3.4,0.5-5.5,0.7c-1.7,0-4.3,0.1-5.2-0.9c-0.5-0.5-0.8-1.5-0.8-2.2
			c0-0.8,0.1-1.6,0.3-2.5c0.2-1,0.4-2.3,0-2.7c-0.4-0.7-2.1-0.3-2.8-0.9c-0.9-0.5-1.1-1.6-1.4-3.1c-0.1-0.4-0.3-0.8-0.4-1.1
			c-0.2-2.1,0.4-4.8,0.9-6.9c0.5-2.2,1.1-4.3,1.5-6.3c0.5-3.1,0.8-6.6,0.5-9.8c-0.1-1.6-0.3-3-0.1-4.4c0.2-1.3,0.8-2.4,1.1-3.7
			c0.1-0.4,0-0.9,0.1-1.3c0-0.4,0.3-0.8,0.3-1.1c0-0.9-0.2-2-0.3-3.1c-0.2-2.9,0-7,0.2-9.5c0.1-0.9,0.4-1.9-0.1-2.3
			c-3.1,0-5.8,0.5-8.6,0.9c-7.5,1-17,1.1-24.4-0.3c-0.7-0.1-1.4-0.1-2.1-0.3c-5.1-1.2-9.9-3.4-13.7-6.3c-0.5-0.4-1.2-1-1.9-1.4
			c-0.7-0.4-1.3-1.2-1.9-1.4c-3-1.4-6.9,0.2-8.1,2.1c-0.4,0.8-0.9,1.7-1.3,2.6c-0.4,0.9-0.9,1.7-1.2,2.6c-2,4.5-4.2,8.7-6.1,13.2
			c-1.1,2.6-2.4,5.5-3.3,8.3c-1.7,6.1-0.1,14.4,1.3,20.2c0.1,0.5,0.4,1.1,0.7,1.6c0.4,1.4,1.4,3.3,2.5,4.3c0.5,0.5,1.5,0.8,2.2,1.3
			c0.8,0.7,1.4,2.1,2.1,3.3c0.2,0.4,0.7,1.1,1,1.6c0.8,1.3,1,2.5-0.4,3.3c-1.1,0.5-2.7,0.8-4.3,0.9c-0.7,0.2-0.4,1.1-0.9,1.5
			c-0.2,0.2-1.3,0.7-1.9,0.9c-2,0.5-5.5,0.5-7,0c-0.8-0.3-1.6-0.9-1.9-1.5c-0.4-1.2,0.5-2.8-0.3-3.7c-0.4-0.4-1.2-0.3-2-0.7
			c-1.1-0.4-2.1-1.4-2.5-2.7c-1.2-3.1-0.4-7.8-0.5-11.5c0-1.1-0.2-2.3-0.2-3.5c-0.1-2.2-0.5-4.4-0.9-6.6c-0.1-1.1-0.4-2-0.7-3
			c-0.3-1.5-0.7-3.3-1.1-4.8c-0.5-1.7-0.5-3.4,0.1-4.9c0.1-0.4,0.5-0.8,0.9-1.3c0.3-0.9,0.4-1.9,0.4-2.6c-0.2-0.4-1.3-0.1-1.5-0.5
			c-0.7-4.8-1.3-9.5-1.7-14.5c-0.1-1.6-0.1-3.4-0.3-5.1c-0.3-3.4,0-6.9-0.3-10.2c-0.1-1.6-0.5-3.2-0.8-4.7
			c-0.5-4.4-1.7-9.9-0.9-14.5c0.5-2.9,1.6-5.2,3.3-7.4c1.2-1.5,2.4-3,3.8-4.3c1.3-1.3,2.8-2.5,4.5-3.7c1-0.8,2.1-1.6,3.3-2.1
			c2.5-1.2,5.8-2.2,9.3-2.3c3.5-0.1,7.4-0.2,10.8,0.4c3.3,0.5,6.6,1.2,9.8,1.9c3.2,0.7,6.2,1.5,9.3,2.3c0.4,0.1,0.8,0.3,1.1,0.4
			c1,0.2,2.1,0.3,3.1,0.7c2.8,0.8,6.4,1.1,9.8,1.1c3.7,0,7-0.1,10.1-0.9c0.4-0.1,0.8-0.3,1.3-0.5c0.4-0.2,1.1-0.1,1.5-0.3
			c0.3-0.1,0.7-0.4,1-0.5c1.7-0.9,3.3-1.6,4.8-2.7c1.2-0.9,2.3-1.6,3.9-2.3c0.8-0.3,1.4-0.7,2.2-0.9c1.5-0.5,3.3-1,4.5-1.7
			c1.9-1.2,3.3-2.9,4.8-4.3c1.6-1.4,3.3-2.7,5-4.2c3.5-2.7,7-5.2,10.3-7.9c1.6-1.3,3.5-2.6,5.5-3.7c3.8-2.2,7.6-4.7,13.1-5.1
			c2.2-0.1,4.4-0.2,6.6,0.1c0.5,0.1,1.4,0.4,2,0.3c0.5-0.1,1-1,1.4-1.7c0.8-1.4,1.4-2.4,2.1-4.2c0.4-1.1,0.2-2.2,1.3-2.1
			c1.1,0,1,3,1,4c0.1,1.3-0.1,3.1,0.1,3.9c0.1,0.7,1,1.5,1.9,1.5c0.7,0,1-0.4,1.5-0.9c0.5-0.3,1.1-0.5,1.5-0.9
			c0.9-0.7,2-1.7,2.8-2.7c0.8-0.8,2-2.5,3.2-2.4c2.2,0.2,0,3.4-0.4,4.5c-1.1,2.5-2.2,4.3-3.5,6.7c-0.5,1-1.7,2.3-1.7,3.3
			c0,0.7,0.5,1.2,0.9,1.9c0.1,0.3,0.2,0.8,0.3,1.1c0.8,1.7,1.3,4.2,1.9,6.1c0.5,1.6,0.9,3.5,1.5,5.1c0.5,1.6,1.4,3.2,2.1,4.7
			c0.2,0.4,0.2,1,0.3,1.3c1.4,3.5,2.7,7.5,4.4,10.9c0.7,1.4,1.6,3.1,1.6,5.1c0,2.2-1.2,3.3-2.2,4.9c-0.5,0.9-1.3,2.2-2.1,2.5
			c-0.5,0.2-1.3,0-1.9,0.1c-0.9,0.1-1.4,0.7-2.2,0.8c-2.1,0.2-3.9-1.3-4.5-2.8c-0.2-0.5-0.1-1.2-0.2-1.9c-0.4-2.4-1.6-3.6-3.4-5.2
			c-1.1-1-2-1.7-3.3-2.5c-2-1-4-1.6-6.1-2.7c-0.8-0.4-1.6-0.8-2.3-0.7c-1.1,0.2-2.2,2-3.1,3.1c-5.4,7-10.1,14.2-15.2,21.1
			c-3.4,4.6-7.1,9.2-9.8,14.4c-0.7,1.3-1.1,2.8-1.6,4.4c-0.5,1.5-0.8,3.2-1.3,4.7c-2,5.7-2.6,12.7-4.5,18.7
			c-0.2,0.7-0.2,1.3-0.4,2.1c-0.9,3.1-1.6,6.6-2.6,9.8c-0.8,2.4-1,5.7-1.1,8.9c-0.1,3-0.2,7.2,0.9,9.1c0.5,1,2.6,1.4,3.4,2.4
			c0.5,0.8,0.9,2.2,1.4,3.1c0.3,0.7,1.4,2.1,1.3,3.1c-0.1,0.8-0.8,1.3-1.3,1.5c-0.7,0.3-1.5,0.1-2.2,0.4
			C331.3,168.9,331.6,169.7,330.9,170.2z"/>
	</g>
</g>
</svg>
