<?xml version="1.0" encoding="UTF-8"?>
<svg width="615px" height="193px" viewBox="0 0 615 193" version="1.1" xmlns="http://www.w3.org/2000/svg" xmlns:xlink="http://www.w3.org/1999/xlink" xmlns:sketch="http://www.bohemiancoding.com/sketch/ns">
    <!-- Generator: Sketch 3.1.1 (8761) - http://www.bohemiancoding.com/sketch -->
    <title>Triplesense Reply - LOGO CMYK</title>
    <desc>Created with Sketch.</desc>
    <defs>
        <path id="path-1" d="M0,-0.465 L841.89,-0.465 L841.89,283 L0,283 L0,-0.465 Z"></path>
    </defs>
    <g id="Page-1" stroke="none" stroke-width="1" fill="none" fill-rule="evenodd" sketch:type="MSPage">
        <g id="Triplesense-Reply---LOGO-CMYK" sketch:type="MSLayerGroup" transform="translate(-25.000000, -45.000000)">
            <path d="M172.5751,45.3812 C163.5141,45.3812 156.1891,52.7262 156.1891,61.7972 C156.1891,70.8402 163.5141,78.1742 172.5751,78.1742 C181.6181,78.1742 188.9621,70.8402 188.9621,61.7972 C188.9621,52.7262 181.6181,45.3812 172.5751,45.3812" id="Fill-1" fill="#7D9AA8" sketch:type="MSShapeGroup"></path>
            <path d="M136.634,114.3469 L157.109,87.3939 C158.155,86.0159 158.242,84.1349 157.327,82.6669 L148.63,68.7119 C147.864,67.4819 146.513,66.7379 145.063,66.7479 L107.528,67.0109 L86.949,66.9949 C85.338,66.9939 84.622,69.0199 85.876,70.0309 L91.643,74.6819 C92.454,75.3359 93.415,75.7789 94.439,75.9719 L130.183,82.7059 L85.967,130.2259 L27.771,138.4919 C25.756,138.7779 24.896,141.2129 26.284,142.7009 L31.968,148.7969 C33.092,150.0029 34.676,150.6759 36.325,150.6489 L92.504,149.7259 C94.585,149.6919 96.619,149.1029 98.396,148.0209 L111.857,139.8239 L140.266,162.3729 C141.385,163.2609 142.118,164.5479 142.31,165.9629 L147.718,205.7819 C147.973,207.6589 149.576,209.0589 151.471,209.0589 L154.365,209.0589 C156.451,209.0589 158.144,207.3719 158.152,205.2859 L158.317,161.0969 C158.326,158.8169 157.596,156.5959 156.238,154.7649 L131.45,121.3549 L136.634,114.3469 Z" id="Fill-3" fill="#7D9AA8" sketch:type="MSShapeGroup"></path>
            <path d="M280.1458,103.7281 C280.1458,95.5961 273.7878,90.5691 265.5078,90.5691 L243.3298,90.5691 L243.3298,117.1831 L265.5078,117.1831 C273.7878,117.1831 280.1458,112.1561 280.1458,103.7281 L280.1458,103.7281 Z M278.0758,170.7071 L258.7068,135.6651 L243.3298,135.6651 L243.3298,170.7071 L222.3338,170.7071 L222.3338,72.0871 L268.4658,72.0871 C289.0168,72.0871 301.7328,85.5411 301.7328,103.8761 C301.7328,121.1751 290.6428,130.6381 279.9978,133.1511 L302.3248,170.7071 L278.0758,170.7071 Z" id="Fill-5" fill="#00444B" sketch:type="MSShapeGroup"></path>
            <path d="M317.4008,170.7071 L317.4008,72.0871 L387.1898,72.0871 L387.1898,90.5691 L338.3968,90.5691 L338.3968,111.2691 L386.1548,111.2691 L386.1548,129.7511 L338.3968,129.7511 L338.3968,152.2251 L387.1898,152.2251 L387.1898,170.7071 L317.4008,170.7071 Z" id="Fill-7" fill="#00444B" sketch:type="MSShapeGroup"></path>
            <path d="M461.4097,103.8757 C461.4097,95.5957 455.0517,90.5687 446.7717,90.5687 L424.5927,90.5687 L424.5927,117.0347 L446.7717,117.0347 C455.0517,117.0347 461.4097,112.0077 461.4097,103.8757 L461.4097,103.8757 Z M403.5977,170.7067 L403.5977,72.0867 L449.7287,72.0867 C471.1677,72.0867 482.8487,86.5767 482.8487,103.8757 C482.8487,121.0267 471.0207,135.5167 449.7287,135.5167 L424.5927,135.5167 L424.5927,170.7067 L403.5977,170.7067 Z" id="Fill-9" fill="#00444B" sketch:type="MSShapeGroup"></path>
            <path d="M495.118,170.7071 L495.118,72.0871 L516.262,72.0871 L516.262,152.2251 L557.957,152.2251 L557.957,170.7071 L495.118,170.7071 Z" id="Fill-11" fill="#00444B" sketch:type="MSShapeGroup"></path>
            <path d="M580.8729,170.7071 L580.8729,130.3421 L543.0219,72.0871 L566.9739,72.0871 L591.3709,111.5641 L615.7669,72.0871 L639.5719,72.0871 L601.8679,130.3421 L601.8679,170.7071 L580.8729,170.7071 Z" id="Fill-13" fill="#00444B" sketch:type="MSShapeGroup"></path>
            <path d="M232.105,236.3539 L232.105,201.6119 L219.662,201.6119 L219.662,195.2659 L251.755,195.2659 L251.755,201.6119 L239.312,201.6119 L239.312,236.3539 L232.105,236.3539 Z" id="Fill-15" fill="#7D9AA8" sketch:type="MSShapeGroup"></path>
            <path d="M282.0024,208.0785 C282.0024,204.1375 279.0454,201.6115 274.9804,201.6115 L265.0634,201.6115 L265.0634,214.6705 L274.9804,214.6705 C279.0454,214.6705 282.0024,212.0825 282.0024,208.0785 L282.0024,208.0785 Z M281.3244,236.3535 L272.2704,221.0155 L265.0634,221.0155 L265.0634,236.3535 L257.8564,236.3535 L257.8564,195.2655 L275.9034,195.2655 C284.0354,195.2655 289.3954,200.5025 289.3954,208.1405 C289.3954,215.4095 284.5894,219.4135 279.6004,220.2145 L289.7024,236.3535 L281.3244,236.3535 Z" id="Fill-17" fill="#7D9AA8" sketch:type="MSShapeGroup"></path>
            <mask id="mask-2" sketch:name="Clip 20" fill="white">
                <use xlink:href="#path-1"></use>
            </mask>
            <g id="Clip-20"></g>
            <path d="M296.605,195.266 L303.812,195.266 L303.812,236.354 L296.605,236.354 L296.605,195.266 Z" id="Fill-19" fill="#7D9AA8" sketch:type="MSShapeGroup" mask="url(#mask-2)"></path>
            <path d="M336.644,208.141 C336.644,204.198 333.748,201.612 329.683,201.612 L319.766,201.612 L319.766,214.609 L329.683,214.609 C333.748,214.609 336.644,212.022 336.644,208.141 L336.644,208.141 Z M312.559,236.354 L312.559,195.266 L330.669,195.266 C339.292,195.266 344.036,201.119 344.036,208.141 C344.036,215.102 339.231,220.954 330.669,220.954 L319.766,220.954 L319.766,236.354 L312.559,236.354 Z" id="Fill-21" fill="#7D9AA8" sketch:type="MSShapeGroup" mask="url(#mask-2)"></path>
            <path d="M349.5825,236.3539 L349.5825,195.2659 L356.7895,195.2659 L356.7895,230.0079 L374.8995,230.0079 L374.8995,236.3539 L349.5825,236.3539 Z" id="Fill-22" fill="#7D9AA8" sketch:type="MSShapeGroup" mask="url(#mask-2)"></path>
            <path d="M381.2466,236.3539 L381.2466,195.2659 L409.3966,195.2659 L409.3966,201.6119 L388.4536,201.6119 L388.4536,212.2069 L408.9666,212.2069 L408.9666,218.5509 L388.4536,218.5509 L388.4536,230.0079 L409.3966,230.0079 L409.3966,236.3539 L381.2466,236.3539 Z" id="Fill-23" fill="#7D9AA8" sketch:type="MSShapeGroup" mask="url(#mask-2)"></path>
            <path d="M414.1421,230.5629 L418.2071,224.9579 C420.9801,227.9759 425.4771,230.6859 431.2051,230.6859 C437.1191,230.6859 439.3981,227.7919 439.3981,225.0189 C439.3981,216.3949 415.4971,221.7539 415.4971,206.6629 C415.4971,199.8249 421.4111,194.5879 430.4661,194.5879 C436.8111,194.5879 442.0471,196.6829 445.8041,200.3789 L441.7391,205.7389 C438.4741,202.4729 434.1011,200.9949 429.7881,200.9949 C425.6001,200.9949 422.8891,203.0899 422.8891,206.1079 C422.8891,213.8079 446.7901,209.0649 446.7901,224.3419 C446.7901,231.1789 441.9231,237.0919 430.8971,237.0919 C423.3211,237.0919 417.8381,234.3819 414.1421,230.5629" id="Fill-24" fill="#7D9AA8" sketch:type="MSShapeGroup" mask="url(#mask-2)"></path>
            <path d="M453.3833,236.3539 L453.3833,195.2659 L481.5333,195.2659 L481.5333,201.6119 L460.5903,201.6119 L460.5903,212.2069 L481.1033,212.2069 L481.1033,218.5509 L460.5903,218.5509 L460.5903,230.0079 L481.5333,230.0079 L481.5333,236.3539 L453.3833,236.3539 Z" id="Fill-25" fill="#7D9AA8" sketch:type="MSShapeGroup" mask="url(#mask-2)"></path>
            <path d="M517.5718,236.3539 L496.1348,206.9699 L496.1348,236.3539 L488.9278,236.3539 L488.9278,195.2659 L496.3198,195.2659 L517.3258,223.7249 L517.3258,195.2659 L524.5328,195.2659 L524.5328,236.3539 L517.5718,236.3539 Z" id="Fill-26" fill="#7D9AA8" sketch:type="MSShapeGroup" mask="url(#mask-2)"></path>
            <path d="M530.6323,230.5629 L534.6973,224.9579 C537.4703,227.9759 541.9673,230.6859 547.6953,230.6859 C553.6093,230.6859 555.8883,227.7919 555.8883,225.0189 C555.8883,216.3949 531.9873,221.7539 531.9873,206.6629 C531.9873,199.8249 537.9013,194.5879 546.9563,194.5879 C553.3013,194.5879 558.5373,196.6829 562.2943,200.3789 L558.2293,205.7389 C554.9643,202.4729 550.5913,200.9949 546.2783,200.9949 C542.0903,200.9949 539.3793,203.0899 539.3793,206.1079 C539.3793,213.8079 563.2803,209.0649 563.2803,224.3419 C563.2803,231.1789 558.4133,237.0919 547.3873,237.0919 C539.8113,237.0919 534.3283,234.3819 530.6323,230.5629" id="Fill-27" fill="#7D9AA8" sketch:type="MSShapeGroup" mask="url(#mask-2)"></path>
            <path d="M569.8735,236.3539 L569.8735,195.2659 L598.0235,195.2659 L598.0235,201.6119 L577.0805,201.6119 L577.0805,212.2069 L597.5935,212.2069 L597.5935,218.5509 L577.0805,218.5509 L577.0805,230.0079 L598.0235,230.0079 L598.0235,236.3539 L569.8735,236.3539 Z" id="Fill-28" fill="#7D9AA8" sketch:type="MSShapeGroup" mask="url(#mask-2)"></path>
        </g>
    </g>
</svg>