<?xml version="1.0" encoding="UTF-8"?>
<!-- Generator: Adobe Illustrator 15.1.0, SVG Export Plug-In . SVG Version: 6.00 Build 0)  -->
<!DOCTYPE svg PUBLIC "-//W3C//DTD SVG 1.1//EN" "http://www.w3.org/Graphics/SVG/1.1/DTD/svg11.dtd">
<svg version="1.1" id="Livello_1" xmlns="http://www.w3.org/2000/svg" xmlns:xlink="http://www.w3.org/1999/xlink" x="0px" y="0px" width="518.123px" height="162.667px" viewBox="0 0 518.123 162.667" enable-background="new 0 0 518.123 162.667" xml:space="preserve">
<g>
	<g>
		<path fill="#1D1D1B" d="M113.306,82.37l-8.381-33.663h-0.139L96.544,82.37H85.531L72.44,32.915h10.875l7.827,33.663h0.139    l8.589-33.663h10.182l8.45,34.078h0.139l8.104-34.078h10.667L124.111,82.37H113.306z"/>
		<path fill="#1D1D1B" d="M148.852,73.781c1.478,1.432,3.602,2.147,6.373,2.147c1.985,0,3.694-0.496,5.125-1.489    c1.431-0.993,2.309-2.043,2.632-3.152h8.658c-1.385,4.294-3.51,7.366-6.372,9.212c-2.864,1.847-6.327,2.771-10.39,2.771    c-2.817,0-5.357-0.45-7.62-1.351c-2.263-0.9-4.18-2.182-5.749-3.844c-1.57-1.663-2.782-3.647-3.636-5.957    c-0.855-2.308-1.281-4.848-1.281-7.619c0-2.677,0.438-5.171,1.316-7.48c0.876-2.309,2.124-4.305,3.74-5.991    c1.616-1.685,3.543-3.013,5.784-3.983c2.239-0.97,4.721-1.455,7.446-1.455c3.047,0,5.702,0.589,7.965,1.766    c2.262,1.178,4.121,2.76,5.576,4.745c1.455,1.986,2.504,4.249,3.152,6.788c0.646,2.54,0.876,5.195,0.692,7.965h-25.836    C146.566,70.041,147.374,72.35,148.852,73.781z M159.969,54.94c-1.178-1.292-2.968-1.939-5.368-1.939    c-1.57,0-2.875,0.267-3.914,0.797c-1.039,0.531-1.87,1.189-2.494,1.974c-0.623,0.786-1.062,1.617-1.316,2.493    c-0.254,0.878-0.405,1.663-0.45,2.355h16C161.966,58.127,161.146,56.234,159.969,54.94z"/>
		<path fill="#1D1D1B" d="M187.3,32.915v18.009h0.138c1.2-1.846,2.828-3.197,4.883-4.052c2.054-0.854,4.19-1.281,6.407-1.281    c1.801,0,3.578,0.37,5.333,1.108c1.754,0.739,3.336,1.87,4.745,3.394c1.408,1.523,2.551,3.475,3.428,5.853    c0.877,2.379,1.316,5.207,1.316,8.485c0,3.279-0.439,6.107-1.316,8.485c-0.877,2.379-2.021,4.329-3.428,5.853    c-1.409,1.523-2.991,2.656-4.745,3.394c-1.755,0.738-3.532,1.108-5.333,1.108c-2.632,0-4.987-0.416-7.065-1.247    c-2.078-0.832-3.648-2.239-4.71-4.225h-0.138v4.571h-9.351V32.915H187.3z M203.231,60.136c-0.324-1.386-0.831-2.608-1.524-3.671    c-0.692-1.062-1.558-1.905-2.597-2.528c-1.039-0.624-2.298-0.936-3.775-0.936c-1.432,0-2.679,0.312-3.74,0.936    c-1.063,0.623-1.939,1.466-2.632,2.528c-0.692,1.063-1.201,2.286-1.524,3.671c-0.323,1.385-0.485,2.84-0.485,4.363    c0,1.479,0.162,2.909,0.485,4.294c0.323,1.386,0.832,2.609,1.524,3.671c0.693,1.062,1.569,1.905,2.632,2.528    c1.062,0.624,2.308,0.935,3.74,0.935c1.477,0,2.736-0.312,3.775-0.935c1.039-0.623,1.905-1.465,2.597-2.528    c0.693-1.062,1.2-2.286,1.524-3.671c0.323-1.385,0.485-2.816,0.485-4.294C203.716,62.976,203.554,61.521,203.231,60.136z"/>
		<path fill="#1D1D1B" d="M235.245,32.915l11.567,34.009h0.139l10.943-34.009h15.309V82.37h-10.182V47.321h-0.139L250.761,82.37    h-8.382l-12.122-34.702h-0.138V82.37h-10.182V32.915H235.245z"/>
		<path fill="#1D1D1B" d="M280.572,57.573c0.138-2.309,0.715-4.225,1.731-5.749c1.015-1.524,2.309-2.747,3.879-3.671    c1.569-0.923,3.335-1.582,5.299-1.974c1.962-0.392,3.936-0.589,5.922-0.589c1.801,0,3.624,0.128,5.472,0.381    c1.847,0.254,3.532,0.751,5.057,1.489c1.523,0.739,2.771,1.766,3.74,3.083c0.97,1.316,1.454,3.06,1.454,5.229v18.632    c0,1.617,0.093,3.163,0.277,4.641c0.185,1.479,0.508,2.586,0.97,3.325h-9.974c-0.186-0.554-0.336-1.119-0.45-1.697    c-0.116-0.577-0.197-1.166-0.243-1.767c-1.57,1.617-3.418,2.748-5.541,3.394c-2.124,0.646-4.294,0.97-6.511,0.97    c-1.709,0-3.302-0.208-4.779-0.624c-1.479-0.416-2.771-1.062-3.879-1.939c-1.108-0.876-1.974-1.985-2.598-3.325    c-0.623-1.338-0.935-2.932-0.935-4.779c0-2.031,0.356-3.706,1.073-5.021c0.716-1.316,1.639-2.366,2.771-3.151    c1.131-0.785,2.425-1.374,3.879-1.767c1.455-0.392,2.92-0.703,4.398-0.935c1.478-0.23,2.932-0.416,4.363-0.554    c1.432-0.138,2.702-0.346,3.81-0.623c1.108-0.277,1.985-0.681,2.633-1.212c0.646-0.53,0.945-1.304,0.9-2.32    c0-1.062-0.174-1.905-0.52-2.528c-0.347-0.623-0.809-1.108-1.386-1.455c-0.578-0.346-1.246-0.577-2.009-0.692    c-0.762-0.115-1.582-0.173-2.459-0.173c-1.939,0-3.463,0.416-4.571,1.247c-1.108,0.831-1.755,2.216-1.939,4.156H280.572z     M303.291,64.846c-0.416,0.37-0.936,0.658-1.559,0.866c-0.623,0.208-1.293,0.381-2.009,0.52c-0.717,0.139-1.467,0.254-2.251,0.346    c-0.786,0.093-1.57,0.208-2.355,0.346c-0.739,0.139-1.466,0.324-2.182,0.554c-0.717,0.232-1.34,0.543-1.87,0.935    c-0.531,0.393-0.959,0.89-1.281,1.489c-0.323,0.601-0.485,1.363-0.485,2.286c0,0.878,0.162,1.617,0.485,2.217    c0.322,0.601,0.762,1.073,1.315,1.42c0.555,0.346,1.201,0.588,1.939,0.727s1.5,0.208,2.286,0.208c1.939,0,3.439-0.323,4.502-0.97    c1.062-0.646,1.847-1.42,2.355-2.32c0.508-0.9,0.819-1.812,0.935-2.736c0.115-0.923,0.174-1.662,0.174-2.216V64.846z"/>
		<path fill="#1D1D1B" d="M339.744,46.56v6.58h-7.203v17.732c0,1.663,0.277,2.771,0.831,3.325c0.555,0.554,1.662,0.831,3.325,0.831    c0.554,0,1.084-0.022,1.593-0.069c0.508-0.046,0.992-0.115,1.454-0.208v7.619c-0.831,0.139-1.755,0.23-2.771,0.277    c-1.016,0.046-2.009,0.069-2.978,0.069c-1.524,0-2.968-0.104-4.329-0.312c-1.363-0.208-2.563-0.611-3.603-1.212    c-1.039-0.599-1.859-1.454-2.459-2.562c-0.601-1.108-0.9-2.563-0.9-4.364V53.14h-5.956v-6.58h5.956V35.823h9.836V46.56H339.744z"/>
		<path fill="#1D1D1B" d="M365.123,46.56v6.58h-7.203v17.732c0,1.663,0.277,2.771,0.831,3.325c0.555,0.554,1.662,0.831,3.325,0.831    c0.554,0,1.084-0.022,1.593-0.069c0.508-0.046,0.992-0.115,1.454-0.208v7.619c-0.831,0.139-1.755,0.23-2.771,0.277    c-1.016,0.046-2.009,0.069-2.978,0.069c-1.524,0-2.968-0.104-4.329-0.312c-1.363-0.208-2.563-0.611-3.603-1.212    c-1.039-0.599-1.859-1.454-2.459-2.562c-0.601-1.108-0.9-2.563-0.9-4.364V53.14h-5.956v-6.58h5.956V35.823h9.836V46.56H365.123z"/>
		<path fill="#1D1D1B" d="M379.349,73.781c1.478,1.432,3.602,2.147,6.372,2.147c1.985,0,3.694-0.496,5.126-1.489    c1.431-0.993,2.309-2.043,2.632-3.152h8.658c-1.385,4.294-3.51,7.366-6.372,9.212c-2.864,1.847-6.327,2.771-10.39,2.771    c-2.817,0-5.357-0.45-7.619-1.351c-2.264-0.9-4.18-2.182-5.749-3.844c-1.57-1.663-2.783-3.647-3.637-5.957    c-0.854-2.308-1.281-4.848-1.281-7.619c0-2.677,0.438-5.171,1.316-7.48c0.876-2.309,2.123-4.305,3.74-5.991    c1.615-1.685,3.543-3.013,5.783-3.983c2.239-0.97,4.721-1.455,7.446-1.455c3.048,0,5.702,0.589,7.965,1.766    c2.263,1.178,4.122,2.76,5.576,4.745c1.455,1.986,2.505,4.249,3.151,6.788c0.646,2.54,0.877,5.195,0.693,7.965h-25.836    C377.063,70.041,377.871,72.35,379.349,73.781z M390.466,54.94c-1.178-1.292-2.968-1.939-5.368-1.939    c-1.57,0-2.874,0.267-3.913,0.797c-1.039,0.531-1.87,1.189-2.494,1.974c-0.623,0.786-1.062,1.617-1.315,2.493    c-0.255,0.878-0.405,1.663-0.45,2.355h16C392.463,58.127,391.644,56.234,390.466,54.94z"/>
		<path fill="#1D1D1B" d="M417.313,46.56v6.649h0.139c0.461-1.108,1.085-2.135,1.87-3.082c0.785-0.946,1.686-1.754,2.701-2.424    c1.016-0.669,2.101-1.188,3.256-1.559c1.153-0.369,2.354-0.554,3.602-0.554c0.646,0,1.361,0.116,2.147,0.346v9.143    c-0.462-0.092-1.017-0.173-1.662-0.242c-0.647-0.069-1.271-0.104-1.87-0.104c-1.801,0-3.325,0.301-4.572,0.9    c-1.246,0.601-2.251,1.42-3.013,2.459s-1.305,2.251-1.628,3.636s-0.484,2.887-0.484,4.502V82.37h-9.836V46.56H417.313z"/>
		<path fill="#1D1D1B" d="M440.377,71.703V82.37h-10.874V71.703H440.377z"/>
		<path fill="#1D1D1B" d="M447.644,41.019v-8.104h9.835v8.104H447.644z M457.479,46.56v35.81h-9.835V46.56H457.479z"/>
		<path fill="#1D1D1B" d="M484.194,46.56v6.58h-7.203v17.732c0,1.663,0.277,2.771,0.831,3.325c0.555,0.554,1.662,0.831,3.325,0.831    c0.554,0,1.084-0.022,1.593-0.069c0.508-0.046,0.992-0.115,1.454-0.208v7.619c-0.831,0.139-1.755,0.23-2.771,0.277    c-1.016,0.046-2.009,0.069-2.978,0.069c-1.524,0-2.968-0.104-4.329-0.312c-1.363-0.208-2.563-0.611-3.603-1.212    c-1.039-0.599-1.859-1.454-2.459-2.562c-0.601-1.108-0.9-2.563-0.9-4.364V53.14h-5.956v-6.58h5.956V35.823h9.836V46.56H484.194z"/>
	</g>
	<g>
		<g>
			
				<rect x="12.272" y="114.038" transform="matrix(0.9659 -0.2588 0.2588 0.9659 -32.1782 11.0747)" fill="#1D1D1B" width="27.391" height="27.392"/>
		</g>
		
			<rect x="47.87" y="104.499" transform="matrix(0.9659 -0.2588 0.2588 0.9659 -28.4959 19.9638)" fill="#1D1D1B" width="27.391" height="27.392"/>
		
			<rect x="82.924" y="95.107" transform="matrix(0.9659 -0.2589 0.2589 0.9659 -24.8707 28.7184)" fill="#1D1D1B" width="27.39" height="27.392"/>
		
			<rect x="127.544" y="120.909" transform="matrix(0.9659 -0.2588 0.2588 0.9659 -30.0282 41.1461)" fill="#1D1D1B" width="27.391" height="27.392"/>
	</g>
</g>
<line fill="none" stroke="#1D1D1B" stroke-width="0.75" stroke-miterlimit="10" x1="141.239" y1="102.874" x2="486.188" y2="102.874"/>
</svg>